<svg width="121" height="119" viewBox="0 0 121 119" fill="none" xmlns="http://www.w3.org/2000/svg">
<g clip-path="url(#clip0_3353_81489)">
<path d="M109.06 25.77H10.03C4.78886 25.77 0.540039 30.0188 0.540039 35.26V96.22C0.540039 101.461 4.78886 105.71 10.03 105.71H109.06C114.301 105.71 118.55 101.461 118.55 96.22V35.26C118.55 30.0188 114.301 25.77 109.06 25.77Z" fill="url(#paint0_linear_3353_81489)"/>
<path d="M67.73 25.7798H10.03C7.51312 25.7798 5.0993 26.7796 3.31958 28.5593C1.53986 30.339 0.540039 32.7529 0.540039 35.2698V96.2698" stroke="#141414" stroke-width="1.07" stroke-linecap="round" stroke-linejoin="round"/>
<path d="M106.08 31.75H14.3404C10.2535 31.75 6.94043 35.0631 6.94043 39.15V66.69C6.94043 70.7769 10.2535 74.09 14.3404 74.09H106.08C110.167 74.09 113.48 70.7769 113.48 66.69V39.15C113.48 35.0631 110.167 31.75 106.08 31.75Z" fill="#FFE8DB"/>
<path d="M56.2901 51.0199C61.0975 51.014 65.7949 49.5822 69.7884 46.9058C73.7819 44.2294 76.8919 40.4287 78.7247 35.9844C80.5575 31.5402 81.0309 26.6521 80.085 21.9387C79.1392 17.2253 76.8163 12.8985 73.4107 9.50544C70.0051 6.11243 65.6696 3.80579 60.9527 2.87739C56.2359 1.94898 51.3496 2.44051 46.9122 4.2898C42.4747 6.13909 38.6856 9.26302 36.024 13.2664C33.3624 17.2697 31.9482 21.9726 31.96 26.7799C31.9733 33.2203 34.5438 39.3918 39.1063 43.9374C43.6687 48.483 49.8497 51.0305 56.2901 51.0199V51.0199Z" fill="white" stroke="url(#paint1_linear_3353_81489)" stroke-width="4.87" stroke-miterlimit="10"/>
<path d="M67.7305 17.4L75.4404 11.8101Z" fill="#FFEBE6"/>
<path d="M67.7305 17.4L75.4404 11.8101" stroke="url(#paint2_linear_3353_81489)" stroke-width="4.87" stroke-miterlimit="10"/>
<path d="M36.1201 40.29L44.5403 34.1899Z" fill="#FFEBE6"/>
<path d="M36.1201 40.29L44.5403 34.1899" stroke="url(#paint3_linear_3353_81489)" stroke-width="4.87" stroke-miterlimit="10"/>
<path d="M45.2998 25.8401V23.9101H59.5198L58.8596 25.8401H45.2998ZM45.2998 29.6001V27.6001H58.2998L57.6797 29.6001H45.2998ZM56.8198 16.4601C58.0098 16.4469 59.1934 16.6363 60.3198 17.0201C61.3151 17.3441 62.2267 17.8836 62.9897 18.6001C63.7206 19.2741 64.2532 20.1352 64.5298 21.0901L60.7898 22.7801C60.7284 22.3589 60.5779 21.9556 60.3486 21.597C60.1193 21.2383 59.8163 20.9326 59.4597 20.7001C58.8932 20.2975 58.2392 20.0351 57.5515 19.9345C56.8638 19.834 56.1622 19.8982 55.5042 20.1217C54.8461 20.3453 54.2507 20.7219 53.7666 21.2206C53.2825 21.7193 52.9237 22.3258 52.7197 22.9901C52.3607 24.1418 52.1918 25.3442 52.2197 26.5501C52.1158 28.2323 52.4977 29.9088 53.3198 31.3801C53.731 31.958 54.2856 32.4188 54.9292 32.7169C55.5728 33.015 56.283 33.1402 56.9897 33.0801C57.8733 33.1099 58.7419 32.8462 59.4597 32.3301C60.1584 31.7429 60.6203 30.9221 60.7598 30.0201L64.6497 31.1801C64.3908 32.2916 63.8618 33.322 63.1096 34.1801C62.3733 35.0047 61.4464 35.6364 60.4097 36.0201C59.2686 36.4321 58.0627 36.6354 56.8496 36.6201C55.1074 36.6692 53.383 36.2587 51.8496 35.4301C50.464 34.6145 49.3507 33.4071 48.6497 31.9601C47.8724 30.2581 47.4963 28.4004 47.5498 26.5301C47.4935 24.6564 47.8806 22.7959 48.6797 21.1001C49.3906 19.658 50.5151 18.4603 51.9097 17.6601C53.407 16.8217 55.1046 16.4069 56.8198 16.4601V16.4601Z" fill="url(#paint4_linear_3353_81489)"/>
<path d="M104.96 44.26H9.75977C7.30825 44.26 4.95684 43.2869 3.22242 41.5543C1.48799 39.8218 0.512421 37.4715 0.509771 35.02V108.85C0.508457 110.097 0.752925 111.332 1.22925 112.485C1.70558 113.637 2.40429 114.685 3.28565 115.567C4.16701 116.449 5.2137 117.149 6.36573 117.627C7.51776 118.104 8.75268 118.35 9.99976 118.35H105C107.252 118.35 109.413 117.456 111.007 115.864C112.6 114.272 113.497 112.113 113.5 109.86V52.78C113.502 51.6587 113.283 50.548 112.855 49.5118C112.426 48.4756 111.797 47.5344 111.003 46.7425C110.209 45.9505 109.267 45.3235 108.229 44.8974C107.192 44.4713 106.081 44.2547 104.96 44.26V44.26Z" fill="#FF9B78"/>
<path d="M104.96 44.26H9.75977C7.30824 44.26 4.95684 43.2869 3.22241 41.5543C1.48799 39.8218 0.512416 37.4715 0.509766 35.02V39.25C0.509766 41.7033 1.48428 44.0561 3.21899 45.7908C4.95371 47.5255 7.30651 48.5 9.75977 48.5H104.96C107.212 48.5 109.373 49.3942 110.967 50.9861C112.56 52.578 113.457 54.7374 113.46 56.9901V52.78C113.462 51.6621 113.244 50.5546 112.818 49.5211C112.392 48.4875 111.767 47.5481 110.977 46.7567C110.188 45.9653 109.25 45.3374 108.217 44.9089C107.184 44.4805 106.078 44.26 104.96 44.26Z" fill="#FFB9A4"/>
<path d="M118.55 63.1499C118.55 63.1499 118.89 73.8099 112.4 74.0899C107.13 74.3099 91.3303 74.0899 91.3303 74.0899C90.0937 74.0886 88.8689 74.331 87.7261 74.8033C86.5832 75.2757 85.5448 75.9685 84.6699 76.8425C83.7951 77.7164 83.101 78.7542 82.6274 79.8965C82.1539 81.0389 81.9102 82.2633 81.9102 83.4999C81.9538 85.9846 82.9603 88.3553 84.7175 90.1125C86.4747 91.8698 88.8456 92.8763 91.3303 92.9199C96.2303 93.1699 106.45 93.4299 111.38 92.9199C112.859 92.6553 114.24 91.9992 115.38 91.0199C117.7 89.1599 120.32 86.2499 120.38 82.8599C120.54 69.1399 121.01 63.1499 118.55 63.1499Z" fill="url(#paint5_linear_3353_81489)"/>
<path d="M118.55 63.1499C118.55 63.1499 118.89 73.8099 112.4 74.0899C107.13 74.3099 91.3303 74.0899 91.3303 74.0899C90.0937 74.0886 88.8689 74.331 87.7261 74.8033C86.5832 75.2757 85.5448 75.9685 84.6699 76.8425C83.7951 77.7164 83.101 78.7542 82.6274 79.8965C82.1539 81.0389 81.9102 82.2633 81.9102 83.4999" stroke="#141414" stroke-width="1.07" stroke-linecap="round" stroke-linejoin="round"/>
<path d="M92.7597 88.1399C95.5873 88.1399 97.8796 85.8476 97.8796 83.0199C97.8796 80.1922 95.5873 77.8999 92.7597 77.8999C89.932 77.8999 87.6396 80.1922 87.6396 83.0199C87.6396 85.8476 89.932 88.1399 92.7597 88.1399Z" fill="#121212"/>
<path d="M113.49 56.9898V52.7798C113.487 50.5272 112.591 48.3677 110.997 46.7758C109.403 45.1839 107.243 44.2898 104.99 44.2898H9.79004C7.33852 44.2898 4.98712 43.3166 3.25269 41.584C1.51827 39.8515 0.542695 37.5013 0.540044 35.0498V108.88C0.53873 110.127 0.783198 111.362 1.25953 112.515C1.73586 113.667 2.43456 114.714 3.31592 115.597C4.19728 116.479 5.24397 117.179 6.396 117.656C7.54803 118.134 8.78295 118.38 10.03 118.38" stroke="#141414" stroke-width="1.07" stroke-linecap="round" stroke-linejoin="round"/>
</g>
<defs>
<linearGradient id="paint0_linear_3353_81489" x1="0.540039" y1="65.74" x2="118.54" y2="65.74" gradientUnits="userSpaceOnUse">
<stop stop-color="#FF5F00"/>
<stop offset="1" stop-color="#FF7524"/>
</linearGradient>
<linearGradient id="paint1_linear_3353_81489" x1="29.56" y1="26.7299" x2="83.0201" y2="26.7299" gradientUnits="userSpaceOnUse">
<stop stop-color="#FF5F00"/>
<stop offset="1" stop-color="#FF7524"/>
</linearGradient>
<linearGradient id="paint2_linear_3353_81489" x1="66.3005" y1="14.6" x2="76.8704" y2="14.6" gradientUnits="userSpaceOnUse">
<stop stop-color="#FF5F00"/>
<stop offset="1" stop-color="#FF7524"/>
</linearGradient>
<linearGradient id="paint3_linear_3353_81489" x1="329.176" y1="37.24" x2="409.107" y2="37.24" gradientUnits="userSpaceOnUse">
<stop stop-color="#FF5F00"/>
<stop offset="1" stop-color="#FF7524"/>
</linearGradient>
<linearGradient id="paint4_linear_3353_81489" x1="45.2998" y1="26.5501" x2="64.6497" y2="26.5501" gradientUnits="userSpaceOnUse">
<stop stop-color="#FF5F00"/>
<stop offset="1" stop-color="#FF7524"/>
</linearGradient>
<linearGradient id="paint5_linear_3353_81489" x1="81.9102" y1="78.1799" x2="120.52" y2="78.1799" gradientUnits="userSpaceOnUse">
<stop stop-color="#FF5F00"/>
<stop offset="1" stop-color="#FF7524"/>
</linearGradient>
<clipPath id="clip0_3353_81489">
<rect width="120.51" height="118.89" fill="white"/>
</clipPath>
</defs>
</svg>
