<svg width="120" height="121" viewBox="0 0 120 121" fill="none" xmlns="http://www.w3.org/2000/svg">
<g clip-path="url(#clip0_3282_105322)">
<path d="M106.49 120.43V9.72993C106.49 7.26606 105.512 4.90311 103.77 3.16089C102.027 1.41868 99.6643 0.439947 97.2004 0.439947H18.4905C17.2697 0.438633 16.0606 0.677954 14.9324 1.14423C13.8041 1.61051 12.7788 2.29457 11.915 3.15735C11.0513 4.02014 10.3662 5.04472 9.89868 6.17249C9.43119 7.30026 9.19043 8.5091 9.19043 9.72993V120.43H106.49Z" fill="#131313"/>
<path d="M106.49 120.43V9.72993C106.49 7.26606 105.512 4.90311 103.77 3.16089C102.027 1.41868 99.6643 0.439947 97.2004 0.439947H18.4905C17.2697 0.438633 16.0606 0.677954 14.9324 1.14423C13.8041 1.61051 12.7788 2.29457 11.915 3.15735C11.0513 4.02014 10.3662 5.04472 9.89868 6.17249C9.43119 7.30026 9.19043 8.5091 9.19043 9.72993V120.43H106.49Z" fill="#FFB9A4"/>
<path d="M102.72 120.43V18.4301C102.72 18.252 102.685 18.0756 102.616 17.9112C102.548 17.7467 102.447 17.5975 102.321 17.472C102.195 17.3465 102.045 17.2472 101.88 17.18C101.715 17.1127 101.538 17.0788 101.36 17.0801H14.3601C14.182 17.0788 14.0053 17.1127 13.8403 17.18C13.6754 17.2472 13.5253 17.3465 13.3989 17.472C13.2725 17.5975 13.1722 17.7467 13.1038 17.9112C13.0353 18.0756 13 18.252 13 18.4301V120.43H102.72Z" fill="#FFE8DB"/>
<path d="M52.8896 8.75H64.8596" stroke="#141414" stroke-linecap="round" stroke-linejoin="round"/>
<path d="M103.571 2.95997C101.85 1.33895 99.5744 0.437345 97.2104 0.439947H18.4905C17.2697 0.438633 16.0606 0.677954 14.9324 1.14423C13.8041 1.61051 12.7788 2.29457 11.915 3.15735C11.0513 4.02014 10.3662 5.04472 9.89868 6.17249C9.43119 7.30026 9.19043 8.5091 9.19043 9.72993V120.43" stroke="#141414" stroke-width="0.88" stroke-linecap="round" stroke-linejoin="round"/>
<path d="M108.13 55.4299L70.5903 86.64L60.8604 74.0899C62.2803 73.5999 63.7901 73.1499 65.4001 72.7499C72.6901 70.9199 77.4001 64.0399 79.4001 52.2999C80.1334 47.7612 80.468 43.167 80.4001 38.5699L108.14 45.1099V41.1899L80.3003 34.6199C80.3003 32.8699 80.3002 29.6699 80.4502 26.2399L80.5303 24.3599C80.6385 21.9461 80.8721 19.5395 81.2302 17.1499H76.2803C75.6048 22.921 75.304 28.7299 75.3801 34.5399L54.9902 38.4299L52.6902 17.1699H50.2202L52.5703 38.89L36.3503 41.9699C34.2198 33.5304 31.5202 25.2448 28.2703 17.1699H23.1201C26.547 25.5272 29.3711 34.1192 31.5703 42.8799L13.0002 46.3999V50.27L32.4802 46.5699C35.3895 58.8413 37.2331 71.3411 37.9902 83.9299C28.4772 86.3881 19.8266 91.4227 12.9902 98.4799V105.41H13.1201C13.2001 105.28 21.1203 92.6099 39.0103 87.5899L43.2002 85.4099C44.6702 83.6099 49.4101 78.55 58.6301 74.89L93.8003 120.44H97.7202L71.8801 88.3099L108.12 58.1799L108.13 55.4299ZM75.4602 38.4299C75.5249 42.9406 75.1903 47.4482 74.4602 51.8999C72.7802 61.7699 69.0003 67.8999 63.8203 69.2199C62.1903 69.6299 60.6602 70.0799 59.2102 70.5699L55.1602 50.6899V42.2799L75.4602 38.4299ZM42.6401 79.7799C41.7064 68.2935 39.9047 56.8943 37.2502 45.6799L52.7402 42.7399V50.7399C52.7353 50.7865 52.7353 50.8334 52.7402 50.8799L56.9202 71.3699C51.7039 73.2871 46.869 76.1142 42.6401 79.7199V79.7799Z" fill="#FFF9F4"/>
<path d="M101.49 30.2701H77.9398C77.334 30.2665 76.7433 30.4594 76.2564 30.8201C75.7696 31.1807 75.4129 31.6895 75.2398 32.2701C72.2398 42.5401 64.3998 45.4 60.8998 46.18C60.4187 46.2883 59.9975 46.5765 59.7223 46.9856C59.4471 47.3947 59.3388 47.8937 59.4198 48.3801C60.1398 52.8801 62.4198 64.32 68.1498 72.3C73.8798 80.28 84.0599 87.44 88.0599 90.12C88.5498 90.4426 89.1233 90.6146 89.7098 90.6146C90.2963 90.6146 90.8701 90.4426 91.36 90.12C95.36 87.44 105.66 80.12 111.28 72.3C116.9 64.48 119.28 52.8801 120 48.3801C120.083 47.8934 119.976 47.3933 119.701 46.9836C119.425 46.5739 119.002 46.2861 118.52 46.18C115.02 45.4 107.23 42.5401 104.19 32.2701C104.015 31.6903 103.658 31.1824 103.172 30.822C102.685 30.4616 102.095 30.2681 101.49 30.2701Z" fill="url(#paint0_linear_3282_105322)"/>
<path d="M99.6003 35.0298H79.7702C79.26 35.0271 78.7626 35.1892 78.3518 35.4919C77.941 35.7945 77.6388 36.2217 77.4902 36.7099C74.9302 45.3599 68.3701 47.7698 65.4201 48.4198C65.0159 48.5156 64.6626 48.7603 64.4309 49.1051C64.1992 49.4499 64.1061 49.8694 64.1701 50.2798C64.7701 54.0698 66.7102 63.6998 71.5202 70.4198C76.3302 77.1398 84.9203 83.1698 88.2903 85.4198C88.7021 85.6937 89.1855 85.8399 89.6801 85.8399C90.1747 85.8399 90.6584 85.6937 91.0703 85.4198C94.4403 83.1598 103.07 77.0098 107.84 70.4198C112.61 63.8298 114.59 54.0698 115.19 50.2798C115.259 49.8701 115.17 49.4495 114.939 49.1038C114.709 48.7581 114.355 48.5134 113.95 48.4198C111 47.7698 104.44 45.3599 101.87 36.7099C101.722 36.2234 101.421 35.7974 101.013 35.4948C100.604 35.1923 100.109 35.0292 99.6003 35.0298V35.0298Z" stroke="#111111" stroke-width="0.62" stroke-miterlimit="10"/>
<path d="M89.68 70.4402C96.6609 70.4402 102.32 64.781 102.32 57.8002C102.32 50.8193 96.6609 45.1602 89.68 45.1602C82.6992 45.1602 77.04 50.8193 77.04 57.8002C77.04 64.781 82.6992 70.4402 89.68 70.4402Z" fill="white"/>
<path d="M84.0898 56.9002L88.5398 61.5402L95.9698 54.6802" stroke="#111111" stroke-width="1.85" stroke-linecap="round" stroke-linejoin="round"/>
<path d="M0 120.43H20.75C20.7514 117.289 21.5515 114.201 23.0752 111.454C24.5989 108.708 26.796 106.394 29.46 104.73L18.0601 87.4302C12.528 90.9793 7.97547 95.8605 4.82007 101.626C1.66467 107.392 0.00737305 113.858 0 120.43Z" fill="white"/>
<g opacity="0.5">
<path d="M0 120.43H20.75C20.7514 117.289 21.5515 114.201 23.0752 111.454C24.5989 108.708 26.796 106.394 29.46 104.73L18.0601 87.4302C12.528 90.9793 7.97547 95.8605 4.82007 101.626C1.66467 107.392 0.00737305 113.858 0 120.43Z" fill="#FFB9A4"/>
</g>
<path d="M60.5398 87.4302L49.1396 104.79C51.8056 106.452 54.0044 108.765 55.5283 111.512C57.0522 114.259 57.8513 117.349 57.8499 120.49H78.5999C78.6025 113.907 76.9498 107.43 73.7939 101.653C70.6381 95.8756 66.0804 90.9848 60.5398 87.4302Z" fill="#FF9B78"/>
<path d="M39.3005 81.1402C31.7669 81.1284 24.3906 83.2954 18.0605 87.3802L29.4604 104.74C32.4047 102.878 35.8169 101.89 39.3005 101.89C42.7842 101.89 46.1961 102.878 49.1404 104.74L60.5405 87.3802C54.2119 83.2923 46.8346 81.125 39.3005 81.1402Z" fill="#FFB9A4"/>
<path d="M39.2995 120.44C41.8455 120.44 43.9095 118.376 43.9095 115.83C43.9095 113.284 41.8455 111.22 39.2995 111.22C36.7534 111.22 34.6895 113.284 34.6895 115.83C34.6895 118.376 36.7534 120.44 39.2995 120.44Z" fill="#121112"/>
<path d="M39.3 117.8C39.0395 117.798 38.7815 117.747 38.54 117.65C38.0621 117.442 37.684 117.057 37.486 116.575C37.2881 116.093 37.2858 115.553 37.4799 115.07L46.1498 94.2298C46.4019 93.8297 46.7878 93.5318 47.2387 93.3891C47.6896 93.2464 48.1763 93.2681 48.6127 93.4503C49.0491 93.6326 49.407 93.9636 49.6225 94.3845C49.838 94.8055 49.8973 95.2893 49.79 95.7498L41.1298 116.59C40.9759 116.948 40.7208 117.253 40.3957 117.468C40.0706 117.683 39.6897 117.798 39.3 117.8Z" fill="#121112"/>
</g>
<defs>
<linearGradient id="paint0_linear_3282_105322" x1="59.3698" y1="60.4401" x2="120" y2="60.4401" gradientUnits="userSpaceOnUse">
<stop stop-color="#FF5F00"/>
<stop offset="1" stop-color="#FF7524"/>
</linearGradient>
<clipPath id="clip0_3282_105322">
<rect width="120" height="120.88" fill="white"/>
</clipPath>
</defs>
</svg>
