<svg width="112" height="121" viewBox="0 0 112 121" fill="none" xmlns="http://www.w3.org/2000/svg">
<g clip-path="url(#clip0_3353_81467)">
<path d="M14.0596 120L97.5396 120C105.006 120 111.06 113.947 111.06 106.48L111.06 23C111.06 15.5331 105.006 9.47998 97.5396 9.47998L14.0596 9.47998C6.59268 9.47998 0.539551 15.5331 0.539551 23L0.539551 106.48C0.539551 113.947 6.59268 120 14.0596 120Z" fill="url(#paint0_linear_3353_81467)"/>
<path d="M97.5398 120L14.0498 120C10.4641 120 7.02524 118.576 4.48975 116.04C1.95425 113.505 0.529785 110.066 0.529785 106.48L0.529785 36.67L111.05 36.67L111.05 106.48C111.05 110.064 109.627 113.501 107.094 116.037C104.56 118.572 101.124 119.997 97.5398 120Z" fill="white"/>
<path d="M23.3401 9.47998H14.05C10.4661 9.48263 7.02967 10.9082 4.49634 13.4434C1.96301 15.9786 0.540038 19.416 0.540039 23V106.48C0.540039 110.066 1.96451 113.505 4.5 116.04C7.03549 118.576 10.4743 120 14.0601 120H97.54" stroke="#141414" stroke-width="1.07" stroke-linecap="round" stroke-linejoin="round"/>
<path d="M0.540039 36.6699V106.48C0.540039 110.066 1.96451 113.504 4.5 116.04C7.03549 118.575 10.4743 120 14.0601 120H97.54" stroke="#141414" stroke-width="1.07" stroke-linecap="round" stroke-linejoin="round"/>
<path opacity="0.5" d="M82.3398 72.6802H94.4497C96.8742 72.6802 98.8398 70.7147 98.8398 68.2902V56.1802C98.8398 53.7556 96.8742 51.7902 94.4497 51.7902H82.3398C79.9153 51.7902 77.9497 53.7556 77.9497 56.1802V68.2902C77.9497 70.7147 79.9153 72.6802 82.3398 72.6802Z" fill="#FFB9A4"/>
<path opacity="0.5" d="M49.7402 72.6802H61.8503C64.2749 72.6802 66.2402 70.7147 66.2402 68.2902V56.1802C66.2402 53.7556 64.2749 51.7902 61.8503 51.7902H49.7402C47.3157 51.7902 45.3503 53.7556 45.3503 56.1802V68.2902C45.3503 70.7147 47.3157 72.6802 49.7402 72.6802Z" fill="#FFB9A4"/>
<g opacity="0.5">
<path opacity="0.5" d="M17.1504 72.6802H29.2603C31.6848 72.6802 33.6504 70.7147 33.6504 68.2902V56.1802C33.6504 53.7556 31.6848 51.7902 29.2603 51.7902H17.1504C14.7259 51.7902 12.7603 53.7556 12.7603 56.1802L12.7603 68.2902C12.7603 70.7147 14.7259 72.6802 17.1504 72.6802Z" fill="#FFB9A4"/>
</g>
<g opacity="0.5">
<path opacity="0.5" d="M82.3398 105.69H94.4497C96.8742 105.69 98.8398 103.724 98.8398 101.3V89.1899C98.8398 86.7654 96.8742 84.7999 94.4497 84.7999H82.3398C79.9153 84.7999 77.9497 86.7654 77.9497 89.1899V101.3C77.9497 103.724 79.9153 105.69 82.3398 105.69Z" fill="#FFB9A4"/>
</g>
<path opacity="0.5" d="M49.7402 105.69H61.8503C64.2749 105.69 66.2402 103.724 66.2402 101.3V89.1899C66.2402 86.7654 64.2749 84.7999 61.8503 84.7999H49.7402C47.3157 84.7999 45.3503 86.7654 45.3503 89.1899V101.3C45.3503 103.724 47.3157 105.69 49.7402 105.69Z" fill="#FFB9A4"/>
<g opacity="0.5">
<path opacity="0.5" d="M17.1504 105.69H29.2603C31.6848 105.69 33.6504 103.724 33.6504 101.3V89.1899C33.6504 86.7654 31.6848 84.7999 29.2603 84.7999H17.1504C14.7259 84.7999 12.7603 86.7654 12.7603 89.1899L12.7603 101.3C12.7603 103.724 14.7259 105.69 17.1504 105.69Z" fill="#FFB9A4"/>
</g>
<path d="M81.8495 27.62C84.379 27.62 86.4295 25.5694 86.4295 23.04C86.4295 20.5105 84.379 18.46 81.8495 18.46C79.3201 18.46 77.2695 20.5105 77.2695 23.04C77.2695 25.5694 79.3201 27.62 81.8495 27.62Z" fill="#111111"/>
<path d="M36.1796 27.62C38.7091 27.62 40.7596 25.5694 40.7596 23.04C40.7596 20.5105 38.7091 18.46 36.1796 18.46C33.6501 18.46 31.5996 20.5105 31.5996 23.04C31.5996 25.5694 33.6501 27.62 36.1796 27.62Z" fill="#111111"/>
<path d="M79.6503 22.0798H84.0402V9.40979C84.0813 8.14492 83.8678 6.88472 83.4122 5.70404C82.9566 4.52336 82.2682 3.4463 81.3881 2.53699C80.5079 1.62767 79.4537 0.904626 78.2884 0.410828C77.1232 -0.0829703 75.8706 -0.337402 74.6051 -0.337402C73.3396 -0.337402 72.087 -0.0829703 70.9217 0.410828C69.7565 0.904626 68.7026 1.62767 67.8224 2.53699C66.9422 3.4463 66.2538 4.52336 65.7982 5.70404C65.3426 6.88472 65.1289 8.14492 65.17 9.40979H69.5402C69.5402 8.07177 70.0716 6.78853 71.0177 5.84241C71.9638 4.89629 73.2471 4.36481 74.5851 4.36481C75.9231 4.36481 77.2063 4.89629 78.1525 5.84241C79.0986 6.78853 79.6302 8.07177 79.6302 9.40979L79.6503 22.0798Z" fill="#111111"/>
<path d="M33.9802 22.0802H38.3704V9.41022C38.3704 6.90657 37.3758 4.50545 35.6055 2.73511C33.8351 0.964764 31.4338 -0.0297852 28.9302 -0.0297852C26.4265 -0.0297852 24.0255 0.964764 22.2551 2.73511C20.4848 4.50545 19.4902 6.90657 19.4902 9.41022H23.8904C23.8904 8.0722 24.4218 6.78896 25.3679 5.84283C26.314 4.89671 27.5973 4.36523 28.9353 4.36523C30.2733 4.36523 31.5566 4.89671 32.5027 5.84283C33.4488 6.78896 33.9802 8.0722 33.9802 9.41022V22.0802Z" fill="#111111"/>
<path d="M39.9805 67H71.4005" stroke="url(#paint1_linear_3353_81467)" stroke-width="5" stroke-linecap="round" stroke-linejoin="round"/>
<path d="M67.6201 58.8499L75.8901 65.5799C76.097 65.7477 76.2636 65.9596 76.3782 66.2001C76.4927 66.4406 76.5522 66.7036 76.5522 66.9699C76.5522 67.2363 76.4927 67.4993 76.3782 67.7398C76.2636 67.9802 76.097 68.1921 75.8901 68.3599L67.55 75.1599C67.2857 75.3731 66.9664 75.5072 66.6292 75.5466C66.2919 75.5861 65.9504 75.5293 65.644 75.3829C65.3377 75.2365 65.0789 75.0064 64.8977 74.7193C64.7165 74.4321 64.6203 74.0995 64.6201 73.7599L64.6899 60.2299C64.6899 59.8904 64.7866 59.5578 64.9685 59.2711C65.1504 58.9843 65.4101 58.7553 65.7173 58.6106C66.0245 58.4659 66.3665 58.4116 66.7034 58.4539C67.0403 58.4963 67.3583 58.6337 67.6201 58.8499Z" fill="url(#paint2_linear_3353_81467)"/>
<path d="M71.6104 89.6699H40.1904" stroke="url(#paint3_linear_3353_81467)" stroke-width="5" stroke-linecap="round" stroke-linejoin="round"/>
<path d="M43.9602 81.5097L35.7002 88.2498C35.4934 88.4176 35.3267 88.6294 35.2122 88.8699C35.0976 89.1104 35.0381 89.3734 35.0381 89.6397C35.0381 89.9061 35.0976 90.1691 35.2122 90.4096C35.3267 90.6501 35.4934 90.8619 35.7002 91.0298L44.0403 97.8298C44.3053 98.0435 44.6255 98.1777 44.9636 98.2168C45.3018 98.2559 45.6442 98.1983 45.9509 98.0506C46.2577 97.903 46.5161 97.6715 46.6965 97.3828C46.877 97.0941 46.9719 96.7602 46.9702 96.4198L46.8904 82.8998C46.8883 82.561 46.7906 82.2298 46.6086 81.9441C46.4267 81.6583 46.1679 81.4298 45.8618 81.2846C45.5558 81.1394 45.215 81.0835 44.8787 81.1233C44.5423 81.1632 44.2239 81.2971 43.9602 81.5097Z" fill="url(#paint4_linear_3353_81467)"/>
</g>
<defs>
<linearGradient id="paint0_linear_3353_81467" x1="0.529551" y1="64.74" x2="111.05" y2="64.74" gradientUnits="userSpaceOnUse">
<stop stop-color="#FF5F00"/>
<stop offset="1" stop-color="#FF7524"/>
</linearGradient>
<linearGradient id="paint1_linear_3353_81467" x1="-nan" y1="-nan" x2="-nan" y2="-nan" gradientUnits="userSpaceOnUse">
<stop stop-color="#FF5F00"/>
<stop offset="1" stop-color="#FF7524"/>
</linearGradient>
<linearGradient id="paint2_linear_3353_81467" x1="62.8258" y1="73.1169" x2="71.7288" y2="62.1188" gradientUnits="userSpaceOnUse">
<stop stop-color="#FF5F00"/>
<stop offset="1" stop-color="#FF7524"/>
</linearGradient>
<linearGradient id="paint3_linear_3353_81467" x1="-nan" y1="-nan" x2="-nan" y2="-nan" gradientUnits="userSpaceOnUse">
<stop stop-color="#FF5F00"/>
<stop offset="1" stop-color="#FF7524"/>
</linearGradient>
<linearGradient id="paint4_linear_3353_81467" x1="46.2661" y1="89.9686" x2="37.3516" y2="78.9316" gradientUnits="userSpaceOnUse">
<stop stop-color="#FF5F00"/>
<stop offset="1" stop-color="#FF7524"/>
</linearGradient>
<clipPath id="clip0_3353_81467">
<rect width="111.06" height="120.53" fill="white"/>
</clipPath>
</defs>
</svg>
