<?xml version="1.0" encoding="UTF-8"?>
<svg width="80px" height="80px" viewBox="0 0 80 80" version="1.1" xmlns="http://www.w3.org/2000/svg" xmlns:xlink="http://www.w3.org/1999/xlink">
    <!-- Generator: Sketch 52.2 (67145) - http://www.bohemiancoding.com/sketch -->
    <title>Icon-Car-Pictogram</title>
    <desc>Created with Sketch.</desc>
    <g id="Icon-Car-Pictogram" stroke="none" stroke-width="1" fill="none" fill-rule="evenodd">
        <g id="Car-Pictogram" transform="translate(0.000000, 23.000000)" fill="#000000">
            <path d="M38.4848318,8.87122537 L45.3418185,8.87122537 L38.999094,2.94279006 L8.99979092,2.94279006 L8.9876056,2.95707512 L11.8711557,2.95707512 L11.8711557,8.87122537 L20.6995259,8.87122537 L20.6995259,2.95707512 L23.6994562,2.95707512 L23.6994562,8.87122537 L35.4849015,8.87122537 L35.4849015,2.95707512 L38.4848318,2.95707512 L38.4848318,8.87122537 Z M8.87122537,8.87122537 L8.87122537,3.09350964 L3.94276683,8.87122537 L8.87122537,8.87122537 Z M0,8.87122537 L7.88553366,0 L39.4276683,0 L49.2845854,8.87122537 L67.0270361,12.8139922 L69,18.7376253 L67.0270361,24.6422927 L57.9163237,24.6422927 C57.3870986,27.4644312 54.9097242,29.60046 51.9341198,29.60046 C48.9585153,29.60046 46.4811409,27.4644312 45.9519158,24.6422927 L22.4314223,24.6422927 C21.9021971,27.4644312 19.4248227,29.60046 16.4492183,29.60046 C13.4736139,29.60046 10.9962395,27.4644312 10.4670143,24.6422927 L4.92845854,24.6422927 L0,19.7138342 L0,8.87122537 Z M46.4511194,20.8681817 C47.4356007,18.8319336 49.5210289,17.4271674 51.9341198,17.4271674 C54.3472106,17.4271674 56.4326388,18.8319336 57.4171201,20.8681817 L64.2939021,20.8681817 L65.0556527,18.8383951 L64.2939021,14.8132545 L47.5938283,11.9997212 L2.94279006,11.9997212 L2.94279006,18.3512474 L5.33651279,20.8681817 L10.9662179,20.8681817 C11.9506992,18.8319336 14.0361275,17.4271674 16.4492183,17.4271674 C18.8623091,17.4271674 20.9477373,18.8319336 21.9322187,20.8681817 L46.4511194,20.8681817 Z M19.593075,23.5138139 C19.593075,21.7777065 18.1853259,20.3699574 16.4492185,20.3699574 C14.7131111,20.3699574 13.3053621,21.7777065 13.3053621,23.5138139 C13.3053621,25.2499213 14.7131111,26.6576704 16.4492185,26.6576704 C18.1853259,26.6576704 19.593075,25.2499213 19.593075,23.5138139 Z M51.93412,26.6576704 C53.6702274,26.6576704 55.0779765,25.2499213 55.0779765,23.5138139 C55.0779765,21.7777065 53.6702274,20.3699574 51.93412,20.3699574 C50.1980126,20.3699574 48.7902635,21.7777065 48.7902635,23.5138139 C48.7902635,25.2499213 50.1980126,26.6576704 51.93412,26.6576704 Z" id="Combined-Shape"></path>
        </g>
    </g>
</svg>