><svg xmlns="http://www.w3.org/2000/svg" fill="none" width="16" height="16"
                                viewBox="0 0 24 25">
                                <g clip-path="url(#car_cog_24_svg__car_cog_24_svg__clip0_358_8227)">
                                    <path fill="#000"
                                        d="M19.04 2.244a.375.375 0 01.356.26l.413 1.282c.173.085.339.18.497.287l1.317-.283a.375.375 0 01.403.18l1.04 1.799a.375.375 0 01-.047.44l-.904.997c.013.191.013.383 0 .575l.904.999a.375.375 0 01.047.439l-1.04 1.8a.375.375 0 01-.403.18l-1.317-.284a4.162 4.162 0 01-.497.287l-.413 1.282a.374.374 0 01-.357.26H16.96a.375.375 0 01-.357-.26l-.412-1.281a4.117 4.117 0 01-.498-.289l-1.316.284a.375.375 0 01-.404-.18l-1.04-1.799a.376.376 0 01.048-.44l.903-.998a4.182 4.182 0 010-.573l-.903-1a.375.375 0 01-.047-.439l1.039-1.8a.375.375 0 01.403-.18l1.317.285c.159-.107.325-.204.499-.289l.412-1.28a.375.375 0 01.355-.261h2.08zm-1.04 3a2.25 2.25 0 110 4.5 2.25 2.25 0 010-4.5zm0 .75a1.5 1.5 0 100 3 1.5 1.5 0 000-3z">
                                    </path>
                                    <circle cx="18" cy="7.49" r="1.5" fill="#fff"></circle>
                                    <path fill="#191919" fill-rule="evenodd"
                                        d="M9.9 10.494H6.65l-1.111 2.5H8.5v2H4.236L3 15.612v.882h3v2H3v3h2v-1.5h12v1.5h2v-3h-3v-2h3v-1.5h2v8.5h-6v-1.5H7v1.5H1v-9.118l.553-.276 1.679-.84 1.854-4.172.264-.594h5.95l-1.4 2zm4.1 6H8v2h6v-2z"
                                        clip-rule="evenodd"></path>
                                </g>
                                <defs>
                                    <clipPath id="car_cog_24_svg__car_cog_24_svg__clip0_358_8227">
                                        <path fill="#fff" d="M0 0h24v24H0z" transform="translate(0 .494)"></path>
                                    </clipPath>
                                </defs>
                            </svg>