<svg width="302" height="200" viewBox="0 0 302 200" fill="none" xmlns="http://www.w3.org/2000/svg">
<g clip-path="url(#clip0_3282_105527)">
<path d="M289.89 0H12C5.37258 0 0 5.37258 0 12V188C0 194.627 5.37258 200 12 200H289.89C296.517 200 301.89 194.627 301.89 188V12C301.89 5.37258 296.517 0 289.89 0Z" fill="#FFE8DB"/>
<path d="M86.2101 41.1097C84.3401 25.3997 66.4801 14.7497 50.6801 15.5097C40.8001 15.9897 32.68 6.50979 15.05 9.32979C9.71064 10.1585 4.59241 12.0527 0 14.8997V128.51L61.22 113.04C69.58 97.4398 84.51 88.8497 77.61 75.4897C70.71 62.1297 89.1501 65.7897 86.2101 41.1097Z" fill="#131313"/>
<path d="M169.61 200C174.47 185.49 181.23 165.12 181.71 162.62C182.47 158.69 179.84 140.36 179.42 137.69C179.42 137.69 133.11 164.69 128.68 180.28C127.27 185.28 126.68 200 126.68 200H169.61Z" fill="url(#paint0_linear_3282_105527)"/>
<path opacity="0.2" d="M154.3 183.14C154.115 184.314 154.038 185.502 154.07 186.69L126.15 191.92L131.85 180.24L154.3 183.14Z" fill="#131313"/>
<path d="M125.08 180.46L162.84 185.23C163.422 185.305 164.011 185.171 164.504 184.852C164.996 184.534 165.36 184.051 165.53 183.49L188.53 108.05C188.98 106.57 187.34 102.45 185.42 102.47L151.42 101.78C150.42 101.78 148.97 103.64 148.5 104.97L123.21 177.42C123.097 177.742 123.058 178.086 123.094 178.426C123.131 178.766 123.243 179.093 123.422 179.385C123.601 179.676 123.843 179.923 124.13 180.109C124.417 180.295 124.741 180.415 125.08 180.46Z" fill="#131313"/>
<path d="M123.51 178.93L161.26 183.71C161.843 183.783 162.432 183.647 162.925 183.326C163.417 183.006 163.78 182.522 163.95 181.96L187.28 105.44C187.39 105.095 187.418 104.728 187.359 104.37C187.301 104.012 187.158 103.673 186.944 103.38C186.729 103.087 186.449 102.85 186.125 102.687C185.801 102.523 185.443 102.439 185.08 102.44L149.33 101.62C148.814 101.62 148.31 101.781 147.889 102.08C147.468 102.38 147.15 102.802 146.98 103.29L121.63 175.86C121.51 176.185 121.464 176.533 121.498 176.878C121.532 177.223 121.643 177.556 121.824 177.852C122.005 178.147 122.251 178.398 122.543 178.585C122.835 178.772 123.166 178.89 123.51 178.93Z" fill="#525252"/>
<path d="M186.23 108.89L166.39 173.99L123.96 169.25L145.38 107.83L186.23 108.89Z" fill="#FCFCFC"/>
<path d="M145.359 177.066C145.725 175.815 145.055 174.518 143.862 174.169C142.669 173.82 141.406 174.551 141.04 175.802C140.674 177.053 141.344 178.35 142.536 178.699C143.729 179.048 144.993 178.317 145.359 177.066Z" stroke="white" stroke-width="0.35" stroke-miterlimit="10"/>
<path d="M169.13 105.41L162.89 105.23" stroke="white" stroke-width="0.4" stroke-linecap="round" stroke-linejoin="round"/>
<path d="M167.802 145.867C167.913 144.645 167.017 143.566 165.801 143.456C164.586 143.346 163.511 144.247 163.4 145.468C163.29 146.689 164.186 147.768 165.401 147.878C166.617 147.988 167.692 147.088 167.802 145.867Z" fill="#131313"/>
<path d="M151.95 144.432C152.06 143.211 151.164 142.132 149.949 142.022C148.733 141.912 147.658 142.813 147.548 144.034C147.437 145.255 148.333 146.334 149.549 146.444C150.764 146.554 151.839 145.653 151.95 144.432Z" fill="#131313"/>
<path d="M140.39 140.38C140.46 139.91 140.63 138.71 140.75 138C140.761 137.928 140.797 137.861 140.852 137.812C140.906 137.763 140.976 137.734 141.05 137.73C141.385 137.72 141.719 137.686 142.05 137.63C144.864 137.037 147.733 136.742 150.61 136.75C153.178 136.838 155.735 137.15 158.25 137.68C159.281 137.972 160.27 138.399 161.19 138.95C162.437 139.744 163.733 140.459 165.07 141.09C166.398 141.541 167.683 142.109 168.91 142.79C169.329 143.12 169.676 143.533 169.928 144.002C170.181 144.472 170.335 144.989 170.38 145.52V145.96C170.38 146.066 170.358 146.171 170.316 146.268C170.273 146.365 170.211 146.452 170.133 146.524C170.055 146.596 169.963 146.65 169.862 146.684C169.762 146.718 169.655 146.73 169.55 146.72L163.34 146.16C163.187 146.145 163.046 146.075 162.943 145.962C162.84 145.85 162.781 145.703 162.78 145.55C162.813 144.945 162.609 144.351 162.212 143.893C161.814 143.436 161.254 143.151 160.65 143.1L158.01 145.82L147.5 144.82C147.347 144.811 147.204 144.745 147.097 144.636C146.99 144.527 146.927 144.383 146.92 144.23C146.948 143.922 146.914 143.611 146.82 143.317C146.725 143.022 146.572 142.75 146.369 142.516C146.166 142.283 145.918 142.093 145.64 141.958C145.361 141.822 145.059 141.745 144.75 141.73L142.08 143.97L140.15 143.3C139.74 143.16 139.43 142.94 139.43 142.51V142.25C139.43 141.945 139.54 141.651 139.74 141.42L140.21 140.76C140.306 140.654 140.368 140.522 140.39 140.38Z" fill="url(#paint1_linear_3282_105527)"/>
<path d="M165.36 145.73C165.368 145.079 165.291 144.431 165.13 143.8C165.035 143.335 164.817 142.904 164.499 142.553C164.18 142.201 163.773 141.941 163.32 141.8L160.04 140.8C159.669 140.677 159.328 140.476 159.04 140.21C158.052 139.307 156.973 138.51 155.82 137.83C154.672 137.377 153.473 137.061 152.25 136.89L150.69 136.79C147.814 136.782 144.945 137.077 142.13 137.67C141.799 137.726 141.465 137.76 141.13 137.77C141.057 137.774 140.987 137.803 140.932 137.852C140.877 137.901 140.841 137.968 140.83 138.04C140.71 138.75 140.54 139.95 140.47 140.42C140.452 140.548 140.4 140.669 140.32 140.77L139.85 141.43C139.65 141.661 139.54 141.955 139.54 142.26V142.52C139.54 142.95 139.85 143.17 140.26 143.31L142.19 143.98C142.19 143.98 147.29 144.81 147.61 144.83L158.12 145.83C158.12 145.83 163.12 146.14 163.45 146.17L164.36 146.25C164.72 146.28 165.23 146.24 165.36 145.73Z" fill="url(#paint2_linear_3282_105527)"/>
<path d="M161.229 138.95C160.445 138.474 159.605 138.094 158.729 137.82C158.259 137.74 157.23 137.57 156.02 137.47C157.348 138.158 158.574 139.03 159.66 140.06C159.925 140.333 160.28 140.5 160.66 140.53L164.66 140.87C163.71 140.44 162.259 139.55 161.229 138.95Z" fill="url(#paint3_radial_3282_105527)"/>
<path d="M146.488 144.364C146.598 143.143 145.702 142.064 144.487 141.954C143.271 141.844 142.196 142.744 142.086 143.965C141.975 145.186 142.871 146.265 144.087 146.375C145.302 146.485 146.377 145.585 146.488 144.364Z" fill="#131313"/>
<path d="M162.363 145.743C162.473 144.522 161.577 143.443 160.362 143.333C159.146 143.223 158.071 144.124 157.961 145.345C157.85 146.566 158.746 147.645 159.962 147.755C161.177 147.865 162.252 146.965 162.363 145.743Z" fill="#131313"/>
<path d="M159.005 121.745C159.067 120.531 158.143 119.498 156.941 119.436C155.738 119.374 154.713 120.308 154.651 121.521C154.589 122.735 155.513 123.768 156.715 123.83C157.918 123.892 158.943 122.958 159.005 121.745Z" fill="#131313"/>
<path d="M175.953 122.612C176.016 121.398 175.092 120.364 173.889 120.303C172.687 120.241 171.661 121.174 171.599 122.388C171.537 123.601 172.461 124.635 173.664 124.697C174.866 124.759 175.891 123.825 175.953 122.612Z" fill="#131313"/>
<path d="M149.39 121.87C148.707 121.718 148.038 121.511 147.39 121.25C147.07 121.04 147.09 120.49 147.39 119.96C147.39 119.96 147.66 117.69 147.78 117.09C148.116 116.074 148.654 115.135 149.36 114.33C149.36 114.33 149.36 114.04 149.36 113.89C149.36 113.74 149.52 113.71 149.87 113.72C150.22 113.73 155.58 113.48 157.44 113.55C159.3 113.62 163.54 113.89 164.7 114.01C166.419 114.125 168.094 114.61 169.61 115.43C171.53 116.5 172.78 117.49 173.29 117.7C174.644 118 175.979 118.377 177.29 118.83C177.671 118.983 178.002 119.237 178.249 119.565C178.496 119.893 178.648 120.282 178.69 120.69C178.632 121.544 178.36 122.369 177.9 123.09C177.481 123.356 176.982 123.466 176.49 123.4C175.98 123.4 154.77 122.4 154.49 122.34C154.21 122.28 149.39 121.87 149.39 121.87Z" fill="url(#paint4_linear_3282_105527)"/>
<path d="M178.62 120.69C178.578 120.282 178.426 119.893 178.179 119.565C177.932 119.237 177.601 118.983 177.22 118.83C175.909 118.377 174.574 118 173.22 117.7C172.71 117.49 171.46 116.5 169.54 115.43C168.024 114.609 166.349 114.125 164.63 114.01C163.47 113.89 159.24 113.62 157.37 113.55H157.01C158.42 113.64 159.77 113.73 160.34 113.8C161.978 113.911 163.571 114.389 165 115.2C166.83 116.27 167 116.93 168 117.36C169 117.79 171.12 118.02 172.32 118.58C172.688 118.741 173.004 119 173.237 119.327C173.469 119.655 173.609 120.039 173.64 120.44C173.57 121.29 173.303 122.111 172.86 122.84C172.59 123.046 172.259 123.155 171.92 123.15C173.17 123.24 176.03 123.39 176.43 123.41C176.922 123.475 177.421 123.366 177.84 123.1C178.298 122.375 178.567 121.546 178.62 120.69Z" fill="url(#paint5_linear_3282_105527)"/>
<path d="M172.97 117.56C172.35 117.21 171.19 116.35 169.55 115.43C168.967 115.1 168.354 114.825 167.72 114.61L164.26 114.44C164.839 114.682 165.392 114.984 165.91 115.34C166.604 115.803 167.271 116.303 167.91 116.84C168.288 117.156 168.758 117.342 169.25 117.37L172.97 117.56Z" fill="url(#paint6_radial_3282_105527)"/>
<path d="M155.15 114.14C159.32 114.14 162.21 114.59 163.39 115.14C164.512 115.61 165.506 116.34 166.29 117.27C166.333 117.328 166.359 117.398 166.364 117.47C166.368 117.543 166.351 117.615 166.315 117.678C166.279 117.74 166.225 117.791 166.16 117.824C166.095 117.856 166.022 117.869 165.95 117.86C164.01 117.69 158.31 117.19 156.04 117.01C154.641 116.977 153.247 116.837 151.87 116.59C151.25 116.41 150.87 115.49 150.67 115.18C150.47 114.87 150.43 114.76 150.5 114.58C150.57 114.4 151.15 114.15 155.15 114.14Z" fill="url(#paint7_radial_3282_105527)"/>
<path d="M153.756 121.853C153.818 120.639 152.894 119.606 151.692 119.544C150.49 119.482 149.464 120.416 149.402 121.629C149.34 122.842 150.264 123.876 151.466 123.938C152.669 124 153.694 123.066 153.756 121.853Z" fill="#131313"/>
<path d="M170.724 122.73C170.786 121.517 169.862 120.483 168.66 120.421C167.457 120.36 166.432 121.293 166.37 122.507C166.307 123.72 167.232 124.754 168.434 124.815C169.636 124.877 170.662 123.944 170.724 122.73Z" fill="#131313"/>
<path d="M159.657 168.146C159.794 166.949 158.939 165.87 157.748 165.734C156.558 165.598 155.482 166.458 155.345 167.654C155.209 168.851 156.064 169.93 157.255 170.066C158.445 170.202 159.521 169.342 159.657 168.146Z" fill="#131313"/>
<path d="M148.75 163.04L148.09 162.37C147.15 162.25 145.3 162.02 144.79 161.93C144.09 161.81 138.39 160.93 138.39 160.93L137.14 160.83H136.7C138.068 161.25 139.461 161.584 140.87 161.83C142.57 162.19 148.75 163.04 148.75 163.04Z" fill="#131313"/>
<path d="M148.75 163.04C148.75 163.04 142.57 162.19 140.87 161.88C139.46 161.633 138.068 161.299 136.7 160.88C135.87 160.88 134.32 161.1 134.17 161.1C134.02 161.1 133.51 161.1 133.17 161.01C132.83 160.92 132.81 161.08 132.8 161.16V161.55C132.564 161.982 132.367 162.434 132.21 162.9C132.116 163.424 132.086 163.958 132.12 164.49C132.179 164.65 132.271 164.796 132.39 164.918C132.508 165.04 132.652 165.136 132.81 165.2L134.91 166.07L140.45 166.91L150.62 168.16L157 168.84C158.13 168.97 160.35 169.21 160.58 169.19C160.776 169.13 160.952 169.017 161.088 168.864C161.224 168.71 161.314 168.522 161.35 168.32C161.588 167.531 161.619 166.694 161.44 165.89C161.16 165.39 160.44 165.12 159.33 164.76C158.22 164.4 155.49 163.76 154.63 163.55C154.092 163.452 153.612 163.152 153.29 162.71C153.02 162.43 152.24 161.71 151.81 161.26C151.618 161.078 151.372 160.963 151.11 160.93L146.48 160.4C146.451 160.397 146.422 160.404 146.397 160.418C146.372 160.433 146.352 160.455 146.34 160.481C146.328 160.507 146.324 160.537 146.33 160.565C146.335 160.594 146.349 160.62 146.37 160.64L148.75 163.04Z" fill="url(#paint8_linear_3282_105527)"/>
<path d="M161.43 165.87C161.15 165.37 160.43 165.1 159.32 164.74C158.21 164.38 155.48 163.74 154.62 163.53C154.082 163.432 153.602 163.132 153.28 162.69C153.01 162.41 152.23 161.69 151.8 161.24C151.608 161.058 151.362 160.942 151.1 160.91L146.47 160.38C146.701 160.429 146.915 160.54 147.09 160.7C147.52 161.12 148.28 161.88 148.57 162.15C149.33 162.85 149.39 162.91 149.97 163.04C150.83 163.25 153.33 163.82 154.44 164.18C155.55 164.54 156.27 164.81 156.54 165.32C156.727 166.123 156.7 166.961 156.46 167.75C156.423 167.95 156.331 168.136 156.195 168.288C156.06 168.44 155.885 168.551 155.69 168.61H155.42C155.949 168.712 156.483 168.786 157.02 168.83C158.15 168.96 160.37 169.2 160.6 169.18C160.796 169.12 160.972 169.007 161.108 168.854C161.244 168.7 161.334 168.512 161.37 168.31C161.6 167.515 161.621 166.675 161.43 165.87Z" fill="url(#paint9_linear_3282_105527)"/>
<path d="M153.28 162.69C153.01 162.41 152.23 161.69 151.8 161.24C151.608 161.058 151.362 160.942 151.1 160.91L146.47 160.38C146.701 160.429 146.915 160.54 147.09 160.7C147.52 161.12 148.28 161.88 148.57 162.15C149.18 162.72 149.34 162.86 149.69 162.97L154.69 163.53C154.411 163.49 154.143 163.395 153.901 163.251C153.659 163.107 153.448 162.916 153.28 162.69Z" fill="url(#paint10_linear_3282_105527)"/>
<path d="M138.49 161.37C139.23 161.55 140.03 161.72 140.87 161.88C141.41 161.97 142.39 162.13 143.49 162.29L143.16 161.46C143.128 161.377 143.074 161.304 143.003 161.249C142.933 161.195 142.849 161.16 142.76 161.15C141.81 161.03 138.82 160.67 138.66 160.68C138.614 160.683 138.57 160.697 138.53 160.721C138.49 160.744 138.456 160.777 138.431 160.816C138.406 160.854 138.39 160.898 138.385 160.944C138.379 160.99 138.385 161.036 138.4 161.08L138.49 161.37Z" fill="#FFB9A4"/>
<path d="M144.67 162.46L148.75 163.04L147.45 161.72C146.25 161.58 144.81 161.41 144.7 161.42C144.654 161.424 144.609 161.438 144.569 161.461C144.529 161.485 144.495 161.517 144.469 161.555C144.443 161.594 144.426 161.637 144.419 161.683C144.413 161.729 144.416 161.776 144.43 161.82C144.49 162 144.67 162.46 144.67 162.46Z" fill="#FFB9A4"/>
<path d="M138.993 165.842C139.129 164.646 138.274 163.566 137.083 163.431C135.893 163.295 134.817 164.155 134.68 165.351C134.544 166.547 135.399 167.627 136.59 167.763C137.78 167.898 138.856 167.039 138.993 165.842Z" fill="#131313"/>
<path d="M154.565 167.613C154.701 166.417 153.846 165.337 152.656 165.201C151.465 165.066 150.389 165.925 150.253 167.122C150.116 168.318 150.971 169.398 152.162 169.533C153.353 169.669 154.428 168.809 154.565 167.613Z" fill="#131313"/>
<path d="M140.965 150.32L139.228 150.106C138.751 150.048 138.317 150.387 138.258 150.863L138.257 150.873C138.198 151.35 138.537 151.784 139.014 151.843L140.751 152.057C141.228 152.115 141.662 151.776 141.721 151.299L141.722 151.289C141.781 150.813 141.442 150.378 140.965 150.32Z" fill="url(#paint11_linear_3282_105527)"/>
<path d="M144.68 151.6L165.58 154.17" stroke="url(#paint12_linear_3282_105527)" stroke-width="1.26" stroke-linecap="round" stroke-linejoin="round"/>
<path d="M148.112 127.459L146.366 127.34C145.887 127.307 145.472 127.669 145.439 128.149L145.438 128.159C145.406 128.638 145.768 129.053 146.247 129.086L147.993 129.204C148.473 129.237 148.888 128.875 148.92 128.396L148.921 128.386C148.954 127.906 148.591 127.491 148.112 127.459Z" fill="url(#paint13_linear_3282_105527)"/>
<path d="M151.81 128.63L171.92 130" stroke="url(#paint14_linear_3282_105527)" stroke-width="1.26" stroke-linecap="round" stroke-linejoin="round"/>
<path d="M122.15 180.59C122.15 180.59 128.67 175.48 132.35 173.34C135.605 171.522 138.699 169.432 141.6 167.09C142.79 165.9 143.52 164.64 144.1 164.2C144.95 163.56 149.32 165.27 145.29 171.38C141.26 177.49 126.88 189.92 126.88 189.92L122.15 180.59Z" fill="url(#paint15_linear_3282_105527)"/>
<path d="M141.62 167.53C142.15 168.24 143.14 169.39 144.35 168.63C144.717 168.428 145.02 168.126 145.223 167.759C145.426 167.393 145.521 166.976 145.496 166.557C145.472 166.139 145.33 165.736 145.087 165.395C144.843 165.054 144.508 164.788 144.12 164.63" stroke="#141414" stroke-width="0.34" stroke-linecap="round" stroke-linejoin="round"/>
<path d="M178.76 165.38C178.76 165.38 176.17 150.92 175.13 147.99C174.09 145.06 172.47 144.25 171.13 144.87C169.79 145.49 168.7 146.93 168.45 150.73C168.2 154.53 167.2 156.46 166.08 161.57C164.96 166.68 164.28 166.93 162.47 168.42C160.66 169.91 155.06 176.52 154.14 184.14L161.88 192.94L178.76 165.38Z" fill="url(#paint16_linear_3282_105527)"/>
<path d="M174.72 148.35C174.72 148.35 172.55 150.49 170.9 149.35C170.13 148.79 170.18 146 171.16 145.35C172.37 144.55 174.09 145.1 175.16 148.03C176.427 152.74 177.448 157.514 178.22 162.33" stroke="#141414" stroke-width="0.34" stroke-linecap="round" stroke-linejoin="round"/>
<path d="M130.77 200C128.13 191.67 125.64 183.94 124.77 181.38C121.993 174.045 117.356 167.558 111.314 162.556C105.273 157.554 98.0347 154.21 90.3101 152.85C77.8701 150.59 66.47 149.16 66.47 149.16C66.47 149.16 9.16004 143.69 0.0400391 144.47V188.12C0.0400391 189.68 0.34731 191.225 0.944336 192.666C1.54136 194.108 2.41649 195.417 3.51965 196.521C4.62281 197.624 5.93243 198.499 7.37378 199.096C8.81513 199.693 10.3599 200 11.92 200H130.77Z" fill="white"/>
<path d="M0 113.11V157.73C0 157.73 54 146.65 52.72 146.04L48.49 121.89L36.26 96.1899L0 113.11Z" fill="url(#paint17_linear_3282_105527)"/>
<path d="M81.6097 82.7902C81.8097 77.3002 81.8998 72.1102 82.1798 67.7902C83.2698 50.4702 79.4398 42.1401 78.4098 40.3901L25.5498 58.4901L44.8098 126.4C44.8098 126.4 65.1998 127.77 71.6398 125.46C75.8698 123.95 79.4098 109.34 80.6398 97.4602C80.6398 97.4602 84.2798 96.6202 85.0798 95.0802C85.8798 93.5402 81.8197 84.0802 81.6097 82.7902Z" fill="url(#paint18_linear_3282_105527)"/>
<path d="M79.2798 42.1299C79.2798 42.1299 71.5297 46.2499 70.7297 62.8799C69.8597 81.3299 52.9498 83.5299 52.9498 83.5299L29.7698 93.0599L11.4697 49.9099L78.0698 38.1299L79.2798 42.1299Z" fill="#131313"/>
<path d="M70.96 72.8599C72.26 68.4699 78.8799 65.25 82.2499 69.25C77.7999 68.69 74.9 70.9099 70.96 72.8599Z" fill="#141414"/>
<path d="M74.3203 78.4201C74.4028 79.2315 74.7863 79.9826 75.3954 80.525C76.0045 81.0674 76.7947 81.3619 77.6102 81.3502C79.2302 81.3502 80.9203 80.3502 80.9203 78.7002C80.847 77.8564 80.472 77.0674 79.864 76.4778C79.256 75.8881 78.4558 75.5374 77.6102 75.4901C76.7947 75.4784 76.0045 75.7729 75.3954 76.3153C74.7863 76.8577 74.4028 77.6087 74.3203 78.4201Z" fill="#F7FCF0"/>
<path d="M71.5303 105.9C72.4083 106.829 73.5424 107.476 74.7887 107.759C76.035 108.042 77.3372 107.948 78.5303 107.49" stroke="#141414" stroke-width="1.14" stroke-linecap="round" stroke-linejoin="round"/>
<path d="M75.1501 79.7901C75.1349 79.9764 75.1349 80.1638 75.1501 80.3501C75.7873 80.968 76.6329 81.3248 77.5201 81.3501C79.1401 81.3501 80.8302 80.3501 80.8302 78.7001C80.799 77.9101 80.4661 77.1621 79.9001 76.61C79.4818 76.4365 79.0331 76.3483 78.5802 76.3501C77.672 76.3606 76.8041 76.7266 76.1628 77.3698C75.5215 78.0129 75.1579 78.8819 75.1501 79.7901Z" fill="#131313"/>
<path d="M60.78 131.67C48.35 120.67 52.7801 113.16 49.9501 102.92C46.8401 91.7902 36.27 86.6101 36.27 86.6101L0 55.9302V160.87H50.2001C50.2001 160.87 55.82 153.01 51.78 140.68C51.78 140.68 59.62 150.58 56.88 160.87H64.41C64.41 160.87 73.21 142.68 60.78 131.67Z" fill="#131313"/>
<path d="M55.52 99.9801C48.19 101.29 41.5201 96.9801 37.9601 89.5401C36.7301 86.9901 33.46 72.9501 46.65 69.5401C58.46 66.5401 63.72 88.6901 63.72 88.6901L55.52 99.9801Z" fill="url(#paint19_linear_3282_105527)"/>
<path d="M43.8301 81.35C44.5501 77.93 52.1501 75.4899 54.5601 83.2899" stroke="#141414" stroke-width="1.14" stroke-linecap="round" stroke-linejoin="round"/>
<path d="M181.73 74.29C181.734 72.6518 181.384 71.0322 180.704 69.5418C180.023 68.0515 179.029 66.7258 177.789 65.6555C176.549 64.5851 175.092 63.7954 173.518 63.3404C171.944 62.8854 170.291 62.7759 168.671 63.0193C167.051 63.2627 165.503 63.8532 164.132 64.7506C162.761 65.648 161.601 66.8309 160.73 68.2185C159.859 69.606 159.298 71.1654 159.086 72.7898C158.874 74.4142 159.015 76.0652 159.5 77.63C159.5 77.63 159.5 77.77 159.64 78.05C159.779 78.4482 159.94 78.8388 160.12 79.2201C161.12 81.4301 163.56 85.94 169.12 92.74C169.268 92.9164 169.452 93.0584 169.66 93.1557C169.868 93.2531 170.095 93.3036 170.325 93.3036C170.555 93.3036 170.782 93.2531 170.99 93.1557C171.198 93.0584 171.383 92.9164 171.53 92.74C177.13 85.94 179.53 81.4301 180.53 79.2201C180.711 78.8388 180.871 78.4482 181.01 78.05C181.067 77.9136 181.114 77.7732 181.15 77.63C181.512 76.5525 181.707 75.4263 181.73 74.29ZM170.37 79.29C169.49 79.29 168.63 79.029 167.898 78.54C167.166 78.051 166.596 77.3561 166.259 76.5429C165.922 75.7298 165.834 74.8351 166.006 73.9719C166.177 73.1087 166.601 72.3157 167.224 71.6933C167.846 71.071 168.639 70.6473 169.502 70.4756C170.365 70.3039 171.26 70.3919 172.073 70.7287C172.886 71.0655 173.581 71.636 174.07 72.3678C174.559 73.0996 174.82 73.9599 174.82 74.8401C174.827 75.4286 174.717 76.0126 174.496 76.5583C174.275 77.104 173.948 77.6005 173.535 78.019C173.121 78.4376 172.628 78.7698 172.085 78.9966C171.542 79.2233 170.959 79.3401 170.37 79.3401V79.29Z" fill="url(#paint20_linear_3282_105527)"/>
<g opacity="0.5">
<path opacity="0.5" d="M249.75 200H262.49C260.85 190.58 258.1 177.2 254.22 166.3C248.28 149.6 235.34 127.56 222.7 112.86C216.82 106.02 224.21 123.22 230.83 142.5C236.83 159.94 242.71 179.71 249.75 200Z" fill="#FFB9A4"/>
<path opacity="0.5" d="M217.53 168.79C220.06 171.02 229 183.79 230.63 187.79C231.46 189.79 233.82 194.98 236.63 200.07H247.22C244.705 194.798 241.62 189.819 238.02 185.22C230.02 175.43 220.59 166.57 214.79 164.45C213.51 163.9 215 166.5 217.53 168.79Z" fill="#FFB9A4"/>
<path opacity="0.5" d="M276.52 200C278.07 189.3 280.05 173.79 280.05 164.32C280.05 148.78 274.9 95.1399 272.22 97.6199C269.54 100.1 266.12 135.02 265.16 148.52C264.5 157.83 263.16 184.42 262.45 200H276.52Z" fill="#FFB9A4"/>
<path opacity="0.5" d="M288.53 200C291.381 191.693 294.72 183.562 298.53 175.65C299.53 173.65 300.66 171.65 301.87 169.65V154.07C299.81 156.07 297.54 158.41 295 161.07C283.35 173.32 276.79 189.31 273.42 200.07L288.53 200Z" fill="#FFB9A4"/>
<path opacity="0.5" d="M234.15 192.88C236.585 195.033 238.806 197.417 240.78 200H250.5C246.606 194.586 241.409 190.242 235.39 187.37C218.24 179.11 202.39 187.93 202.99 188.04C206.29 188.72 225.8 185.62 234.15 192.88Z" fill="#FFB9A4"/>
</g>
<path d="M287.69 16.2202H246.52C244.659 16.2202 243.15 17.729 243.15 19.5902V72.6002C243.15 74.4614 244.659 75.9702 246.52 75.9702H287.69C289.552 75.9702 291.06 74.4614 291.06 72.6002V19.5902C291.06 17.729 289.552 16.2202 287.69 16.2202Z" stroke="white" stroke-width="0.5" stroke-linecap="round" stroke-linejoin="round"/>
<path d="M231.3 53.7998H195.36C193.499 53.7998 191.99 55.3086 191.99 57.1698V94.7798C191.99 96.641 193.499 98.1498 195.36 98.1498H231.3C233.161 98.1498 234.67 96.641 234.67 94.7798V57.1698C234.67 55.3086 233.161 53.7998 231.3 53.7998Z" stroke="white" stroke-width="0.5" stroke-linecap="round" stroke-linejoin="round"/>
<path d="M126.79 29.4301H117.34C116.279 29.4301 115.262 29.0086 114.511 28.2584C113.761 27.5083 113.34 26.4909 113.34 25.4301V20.5801C113.34 19.5192 113.761 18.5017 114.511 17.7516C115.262 17.0014 116.279 16.5801 117.34 16.5801H126.79" stroke="white" stroke-width="0.5" stroke-linecap="round" stroke-linejoin="round"/>
<path d="M99.8495 16.54H109.3C110.36 16.54 111.378 16.9615 112.128 17.7117C112.878 18.4618 113.3 19.4792 113.3 20.54V25.39C113.3 26.4509 112.878 27.4684 112.128 28.2185C111.378 28.9687 110.36 29.39 109.3 29.39H90.8096" stroke="white" stroke-width="0.5" stroke-linecap="round" stroke-linejoin="round"/>
<path d="M160.53 40.21H140.07C139.009 40.21 137.992 40.6313 137.242 41.3815C136.492 42.1316 136.07 43.1491 136.07 44.21V49.1099C136.07 50.1707 136.492 51.1882 137.242 51.9384C137.992 52.6885 139.009 53.1099 140.07 53.1099H174.15" stroke="white" stroke-width="0.5" stroke-linecap="round" stroke-linejoin="round"/>
<path d="M125.07 40.21H132.02C133.081 40.21 134.098 40.6313 134.849 41.3815C135.599 42.1316 136.02 43.1491 136.02 44.21V49.1099C136.02 50.1707 135.599 51.1882 134.849 51.9384C134.098 52.6885 133.081 53.1099 132.02 53.1099H111.54" stroke="white" stroke-width="0.5" stroke-linecap="round" stroke-linejoin="round"/>
<path d="M185.96 40.2102H178.21C177.149 40.2102 176.132 39.7887 175.381 39.0386C174.631 38.2884 174.21 37.2711 174.21 36.2102V26.4102" stroke="white" stroke-width="0.5" stroke-linecap="round" stroke-linejoin="round"/>
<path d="M157.15 40.21H170.15C171.211 40.21 172.229 39.7885 172.979 39.0383C173.729 38.2882 174.15 37.2708 174.15 36.21V25.96" stroke="white" stroke-width="0.5" stroke-linecap="round" stroke-linejoin="round"/>
</g>
<defs>
<linearGradient id="paint0_linear_3282_105527" x1="148.8" y1="196.87" x2="157.82" y2="161.03" gradientUnits="userSpaceOnUse">
<stop stop-color="#F1706E"/>
<stop offset="1" stop-color="#F48D7B"/>
</linearGradient>
<linearGradient id="paint1_linear_3282_105527" x1="143.369" y1="136.777" x2="174.299" y2="136.468" gradientUnits="userSpaceOnUse">
<stop stop-color="#FFB9A4"/>
<stop offset="1" stop-color="#FF7524"/>
</linearGradient>
<linearGradient id="paint2_linear_3282_105527" x1="143.367" y1="136.527" x2="169.257" y2="136.268" gradientUnits="userSpaceOnUse">
<stop stop-color="#FF5F00"/>
<stop offset="1" stop-color="#FF7524"/>
</linearGradient>
<radialGradient id="paint3_radial_3282_105527" cx="0" cy="0" r="1" gradientUnits="userSpaceOnUse" gradientTransform="translate(14474.8 3856.73) scale(28.2528 11.1177)">
<stop stop-color="#FFECE1"/>
<stop offset="1" stop-color="#FFE2D0"/>
</radialGradient>
<linearGradient id="paint4_linear_3282_105527" x1="51275.6" y1="11629" x2="52268.2" y2="11622.4" gradientUnits="userSpaceOnUse">
<stop stop-color="#FF5F00"/>
<stop offset="1" stop-color="#FF7524"/>
</linearGradient>
<linearGradient id="paint5_linear_3282_105527" x1="35435.5" y1="11731.3" x2="35901.4" y2="11728.2" gradientUnits="userSpaceOnUse">
<stop stop-color="#FFB9A4"/>
<stop offset="1" stop-color="#FF7524"/>
</linearGradient>
<radialGradient id="paint6_radial_3282_105527" cx="0" cy="0" r="1" gradientUnits="userSpaceOnUse" gradientTransform="translate(14368.4 4423.38) rotate(2.94001) scale(28.4816 10.2024)">
<stop stop-color="#FFECE1"/>
<stop offset="1" stop-color="#FFE2D0"/>
</radialGradient>
<radialGradient id="paint7_radial_3282_105527" cx="0" cy="0" r="1" gradientUnits="userSpaceOnUse" gradientTransform="translate(26042.7 5700.9) rotate(2.93997) scale(91.8819 21.517)">
<stop stop-color="#FFECE1"/>
<stop offset="1" stop-color="#FFE2D0"/>
</radialGradient>
<linearGradient id="paint8_linear_3282_105527" x1="47365.4" y1="11114.9" x2="48233.5" y2="11114.9" gradientUnits="userSpaceOnUse">
<stop stop-color="#FF5F00"/>
<stop offset="1" stop-color="#FF7524"/>
</linearGradient>
<linearGradient id="paint9_linear_3282_105527" x1="24612.6" y1="11067" x2="24674.7" y2="11190.8" gradientUnits="userSpaceOnUse">
<stop stop-color="#FFB9A4"/>
<stop offset="1" stop-color="#FF7524"/>
</linearGradient>
<linearGradient id="paint10_linear_3282_105527" x1="13463.2" y1="4067.7" x2="13479.6" y2="4117.67" gradientUnits="userSpaceOnUse">
<stop stop-color="#FFB9A4"/>
<stop offset="1" stop-color="#FF7524"/>
</linearGradient>
<linearGradient id="paint11_linear_3282_105527" x1="5540.97" y1="2867.61" x2="5553.03" y2="2869.1" gradientUnits="userSpaceOnUse">
<stop stop-color="#FF5F00"/>
<stop offset="1" stop-color="#FF7524"/>
</linearGradient>
<linearGradient id="paint12_linear_3282_105527" x1="32571.3" y1="5990.93" x2="33034.3" y2="6047.86" gradientUnits="userSpaceOnUse">
<stop stop-color="#FF5F00"/>
<stop offset="1" stop-color="#FF7524"/>
</linearGradient>
<linearGradient id="paint13_linear_3282_105527" x1="5671.42" y1="2568.14" x2="5683.57" y2="2568.97" gradientUnits="userSpaceOnUse">
<stop stop-color="#FF5F00"/>
<stop offset="1" stop-color="#FF7524"/>
</linearGradient>
<linearGradient id="paint14_linear_3282_105527" x1="31475.5" y1="2808.15" x2="31905.3" y2="2837.38" gradientUnits="userSpaceOnUse">
<stop stop-color="#FF5F00"/>
<stop offset="1" stop-color="#FF7524"/>
</linearGradient>
<linearGradient id="paint15_linear_3282_105527" x1="39851.9" y1="32887.6" x2="40127" y2="32416.4" gradientUnits="userSpaceOnUse">
<stop stop-color="#F1706E"/>
<stop offset="1" stop-color="#F48D7B"/>
</linearGradient>
<linearGradient id="paint16_linear_3282_105527" x1="40280.1" y1="62379.7" x2="41108.6" y2="60700.2" gradientUnits="userSpaceOnUse">
<stop stop-color="#F1706E"/>
<stop offset="1" stop-color="#F48D7B"/>
</linearGradient>
<linearGradient id="paint17_linear_3282_105527" x1="78122.5" y1="74623.5" x2="80844.3" y2="74052.1" gradientUnits="userSpaceOnUse">
<stop stop-color="#F1706E"/>
<stop offset="1" stop-color="#F48D7B"/>
</linearGradient>
<linearGradient id="paint18_linear_3282_105527" x1="88209.1" y1="102075" x2="91551" y2="101510" gradientUnits="userSpaceOnUse">
<stop stop-color="#F1706E"/>
<stop offset="1" stop-color="#F48D7B"/>
</linearGradient>
<linearGradient id="paint19_linear_3282_105527" x1="39939.8" y1="36513.9" x2="41430.4" y2="36195.2" gradientUnits="userSpaceOnUse">
<stop stop-color="#F1706E"/>
<stop offset="1" stop-color="#F48D7B"/>
</linearGradient>
<linearGradient id="paint20_linear_3282_105527" x1="37244.4" y1="35318.4" x2="37761.3" y2="35318.4" gradientUnits="userSpaceOnUse">
<stop stop-color="#FF5F00"/>
<stop offset="1" stop-color="#FF7524"/>
</linearGradient>
<clipPath id="clip0_3282_105527">
<rect width="301.9" height="200" fill="white"/>
</clipPath>
</defs>
</svg>
