<svg width="303" height="200" viewBox="0 0 303 200" fill="none" xmlns="http://www.w3.org/2000/svg">
<g clip-path="url(#clip0_2912_69628)">
<path d="M289.89 0H12C5.37258 0 0 5.37258 0 12V188C0 194.627 5.37258 200 12 200H289.89C296.517 200 301.89 194.627 301.89 188V12C301.89 5.37258 296.517 0 289.89 0Z" fill="#FFE8DB"/>
<path d="M289.89 0H214.46C182.46 2.24 145.98 7.37004 112.73 18.17C49.65 38.66 15.01 68.3 0 84.11V89.11C7.18 85.23 18.6699 80.29 34.8099 77.03C61.6599 71.6 118.21 78.91 151.88 77.03C205.59 74.03 223.28 44.0901 245.32 25.5901C259.796 13.5976 276.945 5.26615 295.32 1.30005C293.637 0.445801 291.777 0.00036344 289.89 0Z" fill="#FFF5EE"/>
<path d="M248.46 33.7202C250.73 33.5302 260.34 32.2201 260.67 42.4201C260.67 43.4201 261.74 44.6201 263.89 46.4201C266.32 48.4201 264.66 50.8302 265.46 51.8502C266.26 52.8702 267.33 53.6802 266.65 55.8502H243.01C243.01 55.8502 242.4 54.2202 243.25 53.3402C244.088 52.6633 244.633 51.6888 244.77 50.6201C245.05 49.2001 246.06 49.2001 246.53 47.5201C247.95 42.1801 248.46 33.7202 248.46 33.7202Z" fill="#3D1C15"/>
<path d="M245.46 35.6299C245.46 35.6299 243.46 39.1699 245.08 42.2999L247.29 37.0699L245.46 35.6299Z" fill="#3D1C15"/>
<path d="M246.27 37.9399L256.27 43.4199L253.36 49.5599C250.73 50.9899 247.64 50.7799 247.27 50.4399C245.83 49.0899 244.95 45.8499 245 43.0199C245 40.7499 245.68 38.5099 246.26 37.9399" fill="#D48F65"/>
<path d="M251.46 43.0801C251.069 42.7247 250.61 42.4525 250.11 42.2801C250.64 41.8301 251.52 42.4401 251.46 43.0801Z" fill="#3D1C15"/>
<path d="M258.46 43.79C259.36 41.37 258.97 37.79 257.87 36.6C253.49 31.95 245.41 34.03 245.4 34.43C245.17 41.31 254.56 43.04 254.56 43.04C254.525 43.4496 254.607 43.8606 254.794 44.2265C254.981 44.5923 255.267 44.8983 255.62 45.1099L258.46 43.79Z" fill="#3D1C15"/>
<path d="M255.32 45.1901L249.32 50.0401C249.57 51.5501 249.17 53.0401 248.82 53.2401C248.71 53.3101 248.44 53.5501 248.44 53.5501C248.286 54.01 248.227 54.4963 248.265 54.9798C248.304 55.4633 248.44 55.934 248.665 56.3636C248.89 56.7932 249.2 57.1729 249.575 57.4799C249.951 57.7869 250.384 58.0148 250.85 58.1501C256.08 59.0001 256.21 53.7202 256.21 53.7202C254.79 50.5102 256.4 46.7202 256.4 46.7202C256.982 46.7815 257.57 46.6814 258.099 46.431C258.628 46.1805 259.079 45.7893 259.4 45.3001C259.557 45.0021 259.645 44.6722 259.656 44.3355C259.667 43.9988 259.602 43.664 259.466 43.356C259.329 43.0481 259.124 42.7751 258.867 42.5576C258.61 42.34 258.307 42.1837 257.98 42.1002C255.98 41.5902 255.29 45.1601 255.29 45.1601" fill="#D48F65"/>
<path d="M245.6 41.5402C245.88 41.0202 246.86 41.0902 246.94 41.7202C246.507 41.5808 246.053 41.5198 245.6 41.5402Z" fill="#3D1C15"/>
<path d="M247.66 43.2002C247.456 44.0489 247.209 44.8866 246.92 45.7102C247.225 45.9768 247.615 46.1256 248.02 46.1301C247.789 46.2077 247.541 46.2188 247.304 46.1622C247.067 46.1057 246.851 45.9837 246.68 45.8102C246.83 44.8808 247.171 43.9924 247.68 43.2002H247.66Z" fill="#3D1C15"/>
<path d="M247.46 53.5098C247.46 53.5098 243.39 53.7098 241.8 54.5798C240.6 55.2298 237.8 58.6798 238.4 72.4598C238.47 74.3198 239.06 84.0198 239.06 84.0198C239.06 84.0198 251.67 87.4897 264.13 84.7297C263.443 82.1568 263.106 79.5029 263.13 76.8398C263.24 72.7198 259.69 59.5298 259.69 59.5298L248.6 57.9198L247.46 53.5098Z" fill="#121112"/>
<path d="M260.14 85.4102C258.65 85.4702 250.06 83.4101 245.6 82.2401C244.619 82.1416 243.631 82.1416 242.65 82.2401L242.47 80.5802L262.47 78.1802L263.19 79.5001C263.24 80.2201 263.64 82.6902 263.73 83.3102C263.17 84.6302 261.67 85.1502 260.34 85.4202H260.14V85.4102Z" fill="black"/>
<path d="M254.69 59.3899L246.92 58.4399L247.48 76.2999L250.34 76.5999L254.69 59.3899Z" fill="#FF5F00"/>
<path d="M242.83 74.79C242.145 74.6986 241.513 74.3736 241.04 73.87C240.43 73.1747 239.662 72.6363 238.8 72.3C238.07 72.1 235.38 71.96 235.08 71.88C234.78 71.8 234.71 72.7001 236 73.1901C236.696 73.4235 237.339 73.7941 237.89 74.28C238.03 74.44 238.36 75.61 238.08 75.88C237.8 76.15 232.85 78.79 232.44 79.03C232.24 79.16 232.61 79.56 233.63 79.8C234.803 80.0076 235.989 80.1312 237.18 80.17C238.24 80.24 241.04 79.06 241.58 79.05C241.878 79.0347 242.177 79.0548 242.47 79.11L242.83 74.79Z" fill="#D48F65"/>
<path d="M244.91 75.1698L242.83 74.7998C242.83 74.7998 242.1 79.3898 242.7 81.8798C243.356 82.044 244.025 82.1545 244.7 82.2098L244.91 75.1698Z" fill="white"/>
<path d="M258.99 55.4102C258.99 55.4102 264.73 57.6902 266.39 59.7902C268.05 61.8902 266.3 80.1501 262.32 84.1201C261.68 84.7601 252.15 83.5101 246.99 82.3701C245.73 82.0901 244.46 82.5401 244.42 82.3701C244.281 79.9757 244.446 77.5734 244.91 75.2202C244.91 75.2202 256.79 76.8901 257.27 76.9001C257.75 76.9101 258.82 69.9802 258.95 67.8302L258.99 55.4102Z" fill="#121112"/>
<path d="M253.22 60.5199C253.872 59.0711 254.645 57.6795 255.53 56.3599C255.653 56.3993 255.782 56.4117 255.91 56.3961C256.038 56.3806 256.161 56.3375 256.27 56.2699C256.732 55.7903 257.138 55.2604 257.48 54.6899C257.48 54.6899 259.25 55.4199 261.24 56.3999C261.24 56.3999 259.1 61.6199 258.41 61.9899C257.531 61.9075 256.658 61.7604 255.8 61.5499C255.33 61.5653 254.88 61.7459 254.53 62.0599C254.53 62.0599 256.86 64.0599 256.79 64.4399C256.54 65.5899 252.04 73.3499 250.97 76.0199L250.2 75.9099C250.2 75.9099 252.59 62.2999 253.22 60.5199Z" fill="#3A3A3A"/>
<path d="M247.521 75.5299L246.811 75.4399C246.441 72.4399 244.27 63.3399 244.47 62.1799C244.54 61.8199 247.47 60.8199 247.47 60.8199C247.47 60.8199 247.08 60.0299 246.47 59.8199C245.594 59.6973 244.728 59.5067 243.88 59.2499C243.51 58.8099 243.39 55.6199 243.36 53.9799C244.679 53.7102 246.016 53.5366 247.36 53.46L248.43 57.46C248.177 58.2109 247.979 58.9796 247.84 59.7599C247.81 61.7099 247.521 75.5299 247.521 75.5299Z" fill="#3A3A3A"/>
<path d="M248.85 53.2397C248.85 53.2397 248.551 55.4699 248.581 56.0999C248.581 56.0999 248.041 56.4498 247.581 55.7698C247.479 55.0204 247.418 54.2659 247.4 53.5098L248.85 53.2397Z" fill="white"/>
<path d="M256.24 53.7202C255.916 54.7458 255.521 55.7481 255.061 56.7202C255.061 56.7202 255.501 57.3601 256.061 56.9901C256.573 56.2333 257.044 55.4488 257.47 54.6401C257.47 54.6401 256.53 53.9802 256.24 53.7202Z" fill="white"/>
<path d="M253.37 49.5601C253.121 50.4741 252.574 51.2784 251.814 51.8441C251.054 52.4098 250.127 52.7042 249.18 52.6801C249.381 52.0336 249.462 51.3558 249.42 50.6801C250.8 50.5886 252.146 50.207 253.37 49.5601Z" fill="#B86C3E"/>
<path d="M250.46 46.6602C250.324 46.9872 250.109 47.2752 249.834 47.4987C249.559 47.7221 249.233 47.8738 248.885 47.9402C248.538 48.0066 248.179 47.9856 247.841 47.8792C247.503 47.7727 247.197 47.5841 246.95 47.3302C247.53 47.6097 248.184 47.6955 248.816 47.5748C249.448 47.4542 250.024 47.1335 250.46 46.6602Z" fill="#3D1C15"/>
<path d="M242.92 74.7898C244.39 74.9798 257.17 76.7298 257.27 76.7898C257.37 76.8498 258.7 72.5697 258.95 70.4897" stroke="white" stroke-width="0.51" stroke-linecap="round" stroke-linejoin="round"/>
<path d="M251.46 57.8898C251.46 57.8898 254.52 55.3998 256.74 57.4498C257.12 57.8798 256.66 61.0898 255.21 62.5298C254.75 62.6798 252.77 62.0199 250.88 60.2199C250.507 60.0691 250.112 59.9813 249.71 59.9598C249.255 60.3137 248.73 60.5677 248.17 60.7056C247.61 60.8434 247.027 60.8619 246.46 60.7598C245.98 60.4198 245.22 57.5498 246.73 55.7598C247.08 55.5498 248.73 55.1498 250.25 57.5498L251.46 57.8898Z" fill="white"/>
<path d="M246.58 43.24C246.516 43.3643 246.407 43.4599 246.276 43.508C246.144 43.5561 246 43.5533 245.87 43.5C245.739 43.4626 245.628 43.3763 245.559 43.2591C245.49 43.1418 245.469 43.0025 245.5 42.87C245.565 42.7398 245.674 42.6371 245.808 42.5802C245.942 42.5234 246.092 42.5163 246.23 42.5601C246.364 42.608 246.474 42.7047 246.539 42.831C246.604 42.9572 246.619 43.1034 246.58 43.24Z" fill="#F7FCF0"/>
<path d="M250.79 43.87C250.748 44.0096 250.654 44.1279 250.528 44.2004C250.401 44.273 250.252 44.2943 250.11 44.26C249.967 44.2448 249.837 44.1747 249.745 44.0645C249.654 43.9544 249.609 43.8128 249.62 43.67C249.666 43.5238 249.763 43.399 249.893 43.3182C250.024 43.2375 250.179 43.2061 250.33 43.23C250.472 43.2612 250.598 43.3438 250.683 43.4619C250.768 43.58 250.806 43.7253 250.79 43.87Z" fill="#F7FCF0"/>
<path d="M246.4 43.0598C246.4 42.9299 246.348 42.8051 246.257 42.7133C246.165 42.6214 246.04 42.5698 245.91 42.5698H245.78C245.717 42.5955 245.66 42.6334 245.612 42.6815C245.564 42.7296 245.526 42.7869 245.5 42.8499C245.469 42.9823 245.49 43.1215 245.559 43.2388C245.628 43.356 245.739 43.4422 245.87 43.4797C245.923 43.4893 245.977 43.4893 246.03 43.4797C246.128 43.4572 246.216 43.4047 246.283 43.3293C246.349 43.254 246.39 43.1597 246.4 43.0598Z" fill="#3D1C15"/>
<path d="M250.55 43.7901C250.55 43.6575 250.498 43.5303 250.404 43.4365C250.31 43.3428 250.183 43.2901 250.05 43.2901C249.994 43.2809 249.937 43.2809 249.88 43.2901C249.78 43.3393 249.699 43.4215 249.652 43.523C249.604 43.6245 249.593 43.7392 249.62 43.8479C249.647 43.9567 249.71 44.0529 249.799 44.1206C249.889 44.1883 249.998 44.2235 250.11 44.2201C250.223 44.2133 250.33 44.166 250.411 44.0871C250.491 44.0081 250.541 43.9027 250.55 43.7901Z" fill="#3D1C15"/>
<path d="M252.13 133.51C252.13 133.51 252.13 146.51 253.13 154.51H258.07C258.07 154.51 259.4 138.71 258.55 133.51C257.7 128.31 252.13 133.51 252.13 133.51Z" fill="#D48F65"/>
<path d="M253.1 154.5C253.1 154.5 253.1 159.13 255.72 159.2C257.99 159.27 258.04 154.5 258.04 154.5H253.1Z" fill="#D48F65"/>
<path d="M253.1 155.04L251.69 157.35C251.369 157.877 251.199 158.483 251.2 159.1C251.2 159.402 251.32 159.692 251.534 159.906C251.748 160.12 252.038 160.24 252.34 160.24H257.13C257.338 160.239 257.543 160.194 257.731 160.107C257.919 160.02 258.087 159.894 258.221 159.736C258.356 159.578 258.455 159.393 258.512 159.194C258.569 158.994 258.582 158.785 258.55 158.58L258.02 155.04C257.306 154.446 256.398 154.136 255.47 154.17C255.036 154.134 254.599 154.193 254.189 154.343C253.78 154.494 253.408 154.731 253.1 155.04Z" fill="#121112"/>
<path d="M241.33 110.79C239.54 120.91 244.4 155.27 244.4 155.27L238.26 157.64V160.21H249.7L250.2 110.79C250.2 110.79 241.72 108.63 241.33 110.79Z" fill="#D48F65"/>
<path d="M243.551 155.04C246.031 154.16 246.87 155.93 249.75 155.04L250.41 158.75C250.443 158.933 250.434 159.12 250.386 159.299C250.338 159.478 250.252 159.644 250.133 159.786C250.013 159.928 249.865 160.043 249.697 160.121C249.529 160.199 249.346 160.24 249.16 160.24H238.23C237.965 160.24 237.711 160.135 237.523 159.947C237.336 159.76 237.23 159.505 237.23 159.24C237.243 158.775 237.399 158.325 237.676 157.951C237.954 157.577 238.339 157.298 238.781 157.15C239.851 156.79 242.331 155.47 243.551 155.04Z" fill="#121112"/>
<path d="M239.46 106.35C237.475 114.015 236.736 121.95 237.27 129.85L261.27 130.53V106.35H239.46Z" fill="#121112"/>
<path d="M184.4 84.3398H220.09V160.25H179.45V89.2498C179.461 87.944 179.987 86.6952 180.914 85.7755C181.841 84.8558 183.094 84.3398 184.4 84.3398Z" fill="url(#paint0_linear_2912_69628)"/>
<path d="M185.06 84.3398H209V160.25H179.45V89.9498C179.45 88.462 180.041 87.0351 181.093 85.983C182.145 84.9309 183.572 84.3398 185.06 84.3398Z" fill="#FF9B78"/>
<path d="M287.17 160.24H301.89V84.3301H190.54V104.44C231.52 106.44 267.08 128.29 287.17 160.24Z" fill="url(#paint1_linear_2912_69628)"/>
<path d="M276.08 160.24H290.8V84.3301H184.57C183.211 84.3327 181.909 84.8743 180.949 85.8361C179.989 86.7978 179.45 88.1013 179.45 89.4601V104.46C220.46 106.44 255.99 128.29 276.08 160.24Z" fill="#FF9B78"/>
<path d="M208.83 109.45C188.95 114.69 176.62 134.58 180.24 160.24H220.08" stroke="white" stroke-width="0.51" stroke-linecap="round" stroke-linejoin="round"/>
<path d="M179.46 104.44C220.46 106.44 256 128.29 276.09 160.24H301.9" stroke="white" stroke-width="0.51" stroke-linecap="round" stroke-linejoin="round"/>
<path d="M183.18 160.24H172.59" stroke="#141414" stroke-width="0.49" stroke-miterlimit="10"/>
<path d="M60.1201 25.5601C69.2401 26.2301 74.3801 23.65 76.1201 20.25H85.4601C82.6601 28.36 73.9201 33.43 60.1201 32.74V25.5601Z" fill="url(#paint2_linear_2912_69628)"/>
<path fill-rule="evenodd" clip-rule="evenodd" d="M92.1898 32.7899L88.8499 37.4899L96.5698 48.7899V32.7899H92.1898ZM69.0798 33.7899V48.2499L76.3699 37.4299L72.9498 32.95C75.746 32.2161 78.3672 30.9309 80.6598 29.1699L82.8599 31.96L87.0398 25.6499H110.79V32.8099H105.46V50.3099H87.0498L82.3398 43.3099L77.4498 50.3099H60.1299V45.4999C58.8799 48.8999 54.9599 50.97 47.1299 50.97C35.5799 50.97 35.0198 46.89 34.8398 42.21H43.9799C43.902 43.2976 44.1945 44.3796 44.8098 45.2799C45.1332 45.6292 45.5316 45.9007 45.975 46.0739C46.4184 46.2471 46.8953 46.3175 47.3699 46.2799C49.2299 46.2799 51.2299 45.7499 51.2299 43.7299C51.2374 43.3145 51.1034 42.909 50.8499 42.58C49.6399 40.97 39.4699 39.7799 36.6099 36.8099C35.5741 35.5882 35.0383 34.0201 35.1099 32.4199C35.1099 26.8999 39.3798 24.4199 47.8998 24.4199C56.8998 24.4199 59.0898 27.5899 59.2098 32.7899H50.4598C50.4846 32.2427 50.401 31.6961 50.214 31.1813C50.0269 30.6665 49.7401 30.1936 49.3699 29.7899C49.1013 29.5439 48.7854 29.3551 48.4417 29.2347C48.0979 29.1144 47.7333 29.0652 47.3699 29.09C45.4799 29.09 44.4799 29.93 44.4799 31.22C44.4693 31.6374 44.6076 32.0449 44.8699 32.3699C46.2499 33.9399 56.0998 35.0599 58.9298 38.0599C59.4732 38.6347 59.892 39.3156 60.1598 40.0599V34.2499C63.1673 34.3853 66.1808 34.2347 69.1598 33.7999" fill="url(#paint3_linear_2912_69628)"/>
<path d="M129.8 108.46L129.18 116.22L132.48 118.22C132.48 118.22 135.97 110.05 136.1 107.22C136.29 103.22 134.37 94.0699 134.37 94.0699C133.86 91.5899 131.92 89.1599 129.43 89.6699L128.53 89.1099C127.939 89.2303 127.377 89.4662 126.877 89.8038C126.377 90.1415 125.949 90.5744 125.616 91.0778C125.284 91.5811 125.054 92.1452 124.94 92.7375C124.825 93.3299 124.829 93.9389 124.95 94.5299L129.8 108.46Z" fill="white"/>
<path d="M117.52 117.33C116.164 117.089 114.767 117.388 113.629 118.164C112.491 118.939 111.701 120.13 111.43 121.48C110.548 124.958 110.022 128.516 109.86 132.1C109.393 140.155 109.43 148.23 109.97 156.28C110.064 157.432 110.58 158.509 111.42 159.303C112.26 160.097 113.365 160.552 114.52 160.58C115.694 160.61 116.837 160.198 117.722 159.426C118.607 158.654 119.17 157.577 119.3 156.41L123.72 123.58C124.05 120.58 120.54 117.87 117.62 117.34L117.52 117.33Z" fill="#131313"/>
<path d="M127.4 117.28C130.31 116.83 132.071 118.72 132.741 121.6C133.529 125.097 133.961 128.666 134.03 132.25C134.282 140.314 134.035 148.386 133.29 156.42C133.165 157.568 132.62 158.63 131.76 159.401C130.9 160.173 129.786 160.6 128.631 160.6C127.456 160.602 126.323 160.161 125.458 159.367C124.593 158.572 124.058 157.481 123.96 156.31L120.96 123.31C120.71 120.31 124.341 117.73 127.271 117.31L127.4 117.28Z" fill="#131313"/>
<path d="M124.02 155.99L125.43 188.33H133.2L133.34 155.86C133.321 154.636 132.822 153.469 131.95 152.61C131.079 151.751 129.904 151.27 128.68 151.27C128.063 151.27 127.452 151.392 126.883 151.63C126.313 151.868 125.797 152.217 125.363 152.656C124.93 153.095 124.588 153.616 124.357 154.188C124.127 154.761 124.012 155.373 124.02 155.99Z" fill="white"/>
<path d="M128.46 112.43L115.46 113.17C115.46 113.17 113.3 114.09 111.58 120.96L120.66 128.46C121.177 128.775 121.77 128.941 122.375 128.941C122.98 128.941 123.573 128.775 124.09 128.46L132.54 120.92C130.69 114.26 128.46 112.43 128.46 112.43Z" fill="#131313"/>
<path d="M128.46 112.43C128.46 112.43 121.69 115.16 115.46 113.17V111.33H128.46V112.43Z" fill="#131313"/>
<path d="M122.04 86L111.88 90.11C111.546 90.2464 111.274 90.5018 111.117 90.8268C110.96 91.1518 110.929 91.5235 111.03 91.87L112.6 112.22C119.97 114.55 128.98 111.93 128.98 111.93C128.98 111.93 131.52 97.2601 132.64 92.5801C132.73 92.1491 132.706 91.7022 132.571 91.2832C132.436 90.8642 132.194 90.4876 131.87 90.1901C129.3 88.5201 122.04 86 122.04 86Z" fill="white"/>
<path d="M129.16 116.34L128.16 118.28C128.45 118.69 128.33 120.02 132.05 120.44L131.96 117.95L129.16 116.34Z" fill="url(#paint4_linear_2912_69628)"/>
<path d="M129.8 108.46L128.91 116.2L132.48 118.2C132.48 118.2 135.32 111.37 135.48 108.58C135.65 104.64 129.8 108.46 129.8 108.46Z" fill="white"/>
<path d="M132.46 82.9402C130.46 81.2202 131.05 79.1702 131.32 77.6202C131.59 76.0702 130.95 73.8602 128.46 72.2502C128.46 72.2502 127.27 68.7003 123.94 67.7203C121.38 66.9803 120.09 68.7202 118.62 68.6502C116.26 68.5302 114.03 69.2002 112.88 71.9102C111.73 74.6202 113.03 78.1202 112 80.1202C110.97 82.1202 109.77 84.5502 111 86.8802H131.55C131.727 86.4481 131.807 85.9824 131.785 85.5158C131.762 85.0493 131.638 84.5933 131.42 84.1802C131.783 84.5228 132.062 84.9447 132.236 85.413C132.409 85.8814 132.472 86.3835 132.42 86.8802H133.54C133.78 86.1914 133.806 85.4459 133.613 84.7422C133.42 84.0386 133.018 83.4102 132.46 82.9402Z" fill="#131313"/>
<path d="M124.52 77.9199L118.92 84.0399C119.09 85.0999 118.72 87.3199 118.45 87.4299L116.76 88.1399C117.42 89.9199 120.22 91.6199 121.96 91.6199C125.64 91.6199 126.82 87.7699 126.82 87.7699C126.32 87.6077 125.832 87.4106 125.36 87.1799C125.027 85.1337 124.866 83.063 124.88 80.9898C127.27 80.2698 127.59 77.2399 126.32 76.8899C125.05 76.5399 124.52 77.9199 124.52 77.9199Z" fill="url(#paint5_linear_2912_69628)"/>
<path d="M118.46 86.14C119.248 86.2328 120.045 86.0835 120.745 85.7119C121.445 85.3402 122.016 84.7641 122.38 84.06C123.99 81.51 118.271 84.33 118.271 84.33L118.46 86.14Z" fill="#131313"/>
<path d="M115.53 72.6899C115.53 72.6899 123.53 68.81 124.53 77.35V82.6999C122.802 84.1665 120.584 84.9272 118.32 84.8299C117.5 84.6599 116.32 83.5399 115.49 81.6299C114.32 78.9899 114.58 73.9999 115.53 72.6899Z" fill="url(#paint6_linear_2912_69628)"/>
<path d="M115.53 72.6902C115.53 72.6902 116.75 74.4702 122.14 76.3302C122.659 76.4672 123.14 76.7176 123.55 77.0635C123.96 77.4094 124.288 77.8421 124.51 78.3302L124.59 77.7702C124.59 77.7702 126.33 73.5302 123.15 71.0202C120.46 68.8802 115.46 70.5802 115.53 72.6902Z" fill="#131313"/>
<path d="M125.32 78.9101C125.32 78.9101 125.52 77.9701 126.24 78.1901" stroke="#141414" stroke-width="0.24" stroke-linecap="round" stroke-linejoin="round"/>
<path d="M121.6 78.1001C121.582 78.2645 121.504 78.4163 121.38 78.5255C121.256 78.6348 121.095 78.6935 120.93 78.6901C120.6 78.6901 120.25 78.49 120.25 78.16C120.266 77.9871 120.344 77.8257 120.468 77.7047C120.593 77.5838 120.757 77.5111 120.93 77.5C121.096 77.4991 121.257 77.56 121.381 77.6709C121.504 77.7818 121.583 77.9348 121.6 78.1001Z" fill="#F7FCF0"/>
<path d="M117.2 78.3202C117.183 78.4855 117.105 78.6384 116.981 78.7493C116.857 78.8602 116.696 78.9211 116.53 78.9202C116.37 78.9344 116.211 78.886 116.086 78.7853C115.961 78.6846 115.88 78.5394 115.86 78.3801C115.874 78.2081 115.95 78.0468 116.073 77.9257C116.196 77.8045 116.358 77.7316 116.53 77.7202C116.696 77.7193 116.857 77.7801 116.981 77.891C117.105 78.0019 117.183 78.1549 117.2 78.3202Z" fill="#F7FCF0"/>
<path d="M118.13 78.6899C118.13 79.4799 117.84 80.2499 117.81 80.9999C118.229 81.0742 118.655 81.1011 119.08 81.08C118.691 81.1981 118.286 81.2521 117.88 81.2399C117.82 81.2399 117.66 81.2399 117.6 81.0599C117.637 80.2451 117.816 79.443 118.13 78.6899Z" fill="#141414"/>
<path d="M120.1 76.2201C120.392 76.0385 120.743 75.9747 121.081 76.0415C121.418 76.1083 121.718 76.3008 121.92 76.58C121.25 76.45 120.78 76.3101 120.1 76.2201Z" fill="#131313"/>
<path d="M115.53 76.7899C115.598 76.6482 115.695 76.5222 115.815 76.42C115.934 76.3178 116.074 76.2417 116.224 76.1965C116.375 76.1513 116.533 76.1382 116.689 76.1577C116.845 76.1772 116.996 76.229 117.13 76.3099C116.52 76.4699 116.13 76.5899 115.53 76.7899Z" fill="#131313"/>
<path d="M117.89 82.34C118.048 82.5061 118.239 82.638 118.451 82.7274C118.662 82.8169 118.89 82.8619 119.12 82.8599C119.381 82.812 119.626 82.7016 119.835 82.5378C120.044 82.3741 120.211 82.162 120.32 81.9199" stroke="#141414" stroke-width="0.24" stroke-linecap="round" stroke-linejoin="round"/>
<path d="M116.31 77.79H116.25C116.14 77.8432 116.045 77.925 115.976 78.027C115.908 78.1289 115.868 78.2474 115.86 78.37C115.88 78.5292 115.961 78.6744 116.086 78.7751C116.211 78.8759 116.37 78.9242 116.53 78.91C116.6 78.9195 116.671 78.9195 116.74 78.91C116.833 78.8237 116.897 78.7116 116.924 78.5884C116.952 78.4651 116.942 78.3364 116.896 78.2189C116.85 78.1013 116.769 78.0004 116.665 77.9293C116.56 77.8582 116.437 77.8202 116.31 77.8201V77.79Z" fill="#131313"/>
<path d="M120.76 77.5298C120.622 77.5715 120.499 77.6539 120.408 77.7662C120.317 77.8786 120.262 78.0157 120.25 78.1598C120.25 78.4898 120.6 78.6898 120.93 78.6898H121.03C121.137 78.6187 121.22 78.5164 121.267 78.3969C121.315 78.2773 121.324 78.1461 121.295 78.0209C121.266 77.8957 121.199 77.7825 121.103 77.6965C121.007 77.6105 120.888 77.5558 120.76 77.5398V77.5298Z" fill="#131313"/>
<path d="M127.99 118C128.121 118.429 128.346 118.823 128.648 119.154C128.951 119.484 129.324 119.743 129.74 119.91C130.556 120.225 131.417 120.404 132.29 120.44" stroke="#141414" stroke-width="0.5" stroke-linecap="round" stroke-linejoin="round"/>
<path d="M116.521 103.15L116.59 103.3C116.563 103.252 116.54 103.202 116.521 103.15Z" fill="#131313"/>
<path d="M116.59 103.3C116.638 103.426 116.698 103.546 116.77 103.66L116.59 103.3Z" fill="url(#paint7_linear_2912_69628)"/>
<path d="M111.52 90.3198C108.46 91.8298 107.36 105.82 107.36 105.82L102.97 118.39L108.17 120.44L113.96 108.6L111.52 90.3198Z" fill="white"/>
<path d="M111.91 100.08L113.14 105.65L112.6 112.22C112.6 112.22 117.33 114.55 128.98 111.93" stroke="#141414" stroke-width="0.5" stroke-linecap="round" stroke-linejoin="round"/>
<path d="M135.76 199.96C148.8 199.96 159.37 189.34 159.37 176.24C159.37 163.14 148.8 152.52 135.76 152.52C122.721 152.52 112.15 163.14 112.15 176.24C112.15 189.34 122.721 199.96 135.76 199.96Z" fill="#131313"/>
<path d="M187.38 173.79C187.26 172.37 187.09 170.79 186.88 169.14C185.83 161.14 181.1 144.69 170.68 139.14C160.26 133.59 134.4 129.02 126.1 127.14C117.8 125.26 96.8399 114.69 82.7899 108.14C68.7399 101.59 60.24 99.7 50.27 97.5C43.27 95.95 23.82 94.61 0 94.5V183.79L55.5599 184.17L81.0599 152.76C100.55 153.76 105.06 168.27 106.06 176.76C106.23 178.404 107.003 179.926 108.229 181.034C109.455 182.142 111.048 182.756 112.7 182.76H179.24C180.379 182.755 181.505 182.513 182.546 182.05C183.587 181.586 184.519 180.911 185.285 180.067C186.051 179.224 186.632 178.23 186.993 177.149C187.354 176.068 187.485 174.924 187.38 173.79Z" fill="url(#paint8_linear_2912_69628)"/>
<path d="M128.95 155.9C127.512 151.038 124.791 146.653 121.073 143.206C117.355 139.759 112.777 137.377 107.82 136.31L71.8204 128.54C67.6103 127.639 63.6564 125.804 60.2505 123.17C48.8805 114.34 31.1204 104.11 23.6504 101.02C18.4904 98.8799 8.59047 97.0799 -0.0195312 95.8999V183.79L55.5404 184.17C55.5404 184.17 109.23 182.66 112.641 182.66H122.38C126.92 182.66 132.38 181.78 133.31 176.25C133.82 173.52 131.46 164.35 128.95 155.9Z" fill="url(#paint9_linear_2912_69628)"/>
<path d="M51.4603 127.49C45.8403 117.72 31.4003 111.22 22.1603 107.49C17.5603 105.62 9.69027 103.91 0.0302734 102.71V129.25C23.2803 130.67 41.5603 131.17 49.2203 131.33C49.6753 131.344 50.1254 131.234 50.5234 131.014C50.9215 130.793 51.2526 130.469 51.4819 130.076C51.7113 129.683 51.8303 129.235 51.8265 128.78C51.8227 128.325 51.6962 127.879 51.4603 127.49Z" fill="white"/>
<path d="M82.7896 108.05C73.9771 103.788 64.6932 100.579 55.1296 98.4897C49.9796 98.0297 38.9096 97.2298 25.9496 97.3098C25.9296 97.3164 25.9121 97.3291 25.8998 97.3462C25.8874 97.3632 25.8809 97.3837 25.8809 97.4047C25.8809 97.4258 25.8874 97.4463 25.8998 97.4633C25.9121 97.4804 25.9296 97.4931 25.9496 97.4997C29.4096 98.9097 51.8496 108.32 67.1996 121.5C70.2659 124.112 74.1712 125.533 78.1996 125.5L120.67 125.31C110.64 121.59 94.3696 113.48 82.7896 108.05Z" fill="white"/>
<path d="M146.63 151.73C138.81 146.03 126.79 140 119.31 137.73C109.82 134.82 96.0598 133.79 96.0498 133.79L107.82 136.33C112.776 137.397 117.354 139.779 121.072 143.226C124.79 146.673 127.512 151.058 128.95 155.92C128.95 156.01 128.95 156.1 129.03 156.2H145.18C145.705 156.207 146.219 156.046 146.645 155.74C147.072 155.433 147.39 154.999 147.552 154.499C147.714 154 147.712 153.461 147.546 152.963C147.38 152.465 147.059 152.033 146.63 151.73Z" fill="white"/>
<path d="M107.82 136.31L96.0498 133.77L120.42 153.34C122.708 155.178 125.555 156.18 128.49 156.18H129.03C129.03 156.08 129.03 155.99 128.95 155.9C127.512 151.038 124.79 146.653 121.072 143.206C117.354 139.759 112.776 137.377 107.82 136.31Z" fill="url(#paint10_radial_2912_69628)"/>
<path d="M180.13 149.01C178.72 149.91 177.36 150.82 176.13 151.73C175.709 152.035 175.397 152.466 175.236 152.961C175.076 153.455 175.076 153.988 175.237 154.482C175.398 154.976 175.712 155.407 176.133 155.712C176.554 156.017 177.06 156.181 177.58 156.18H183.53C182.593 153.701 181.456 151.303 180.13 149.01Z" fill="white"/>
<path d="M50.7995 130.86L45.7995 127.5C44.5785 126.679 43.1408 126.24 41.6695 126.24H36.2596C35.0182 126.223 33.8035 126.601 32.7914 127.32C31.7792 128.039 31.0221 129.062 30.6296 130.24C30.6253 130.283 30.6253 130.327 30.6296 130.37C30.4524 130.976 30.4142 131.615 30.5181 132.238C30.6219 132.862 30.8652 133.454 31.2296 133.97C31.7592 134.734 32.4661 135.359 33.2898 135.791C34.1135 136.223 35.0295 136.449 35.9596 136.45H46.2995" fill="url(#paint11_linear_2912_69628)"/>
<path d="M77.7204 200C90.7598 200 101.33 189.38 101.33 176.28C101.33 163.18 90.7598 152.56 77.7204 152.56C64.6809 152.56 54.1104 163.18 54.1104 176.28C54.1104 189.38 64.6809 200 77.7204 200Z" fill="#131313"/>
<path d="M77.7204 189.42C84.9388 189.42 90.7904 183.537 90.7904 176.28C90.7904 169.023 84.9388 163.14 77.7204 163.14C70.502 163.14 64.6504 169.023 64.6504 176.28C64.6504 183.537 70.502 189.42 77.7204 189.42Z" fill="white"/>
</g>
<defs>
<linearGradient id="paint0_linear_2912_69628" x1="179.45" y1="122.29" x2="220.09" y2="122.29" gradientUnits="userSpaceOnUse">
<stop stop-color="#FF5F00"/>
<stop offset="1" stop-color="#FF7524"/>
</linearGradient>
<linearGradient id="paint1_linear_2912_69628" x1="190.54" y1="122.28" x2="301.89" y2="122.28" gradientUnits="userSpaceOnUse">
<stop stop-color="#FF5F00"/>
<stop offset="1" stop-color="#FF7524"/>
</linearGradient>
<linearGradient id="paint2_linear_2912_69628" x1="35.8502" y1="61.64" x2="134.46" y2="-38.7899" gradientUnits="userSpaceOnUse">
<stop stop-color="#FFB9A4"/>
<stop offset="1" stop-color="#FF7524"/>
</linearGradient>
<linearGradient id="paint3_linear_2912_69628" x1="148287" y1="30538.7" x2="149895" y2="25853.4" gradientUnits="userSpaceOnUse">
<stop stop-color="#FFB9A4"/>
<stop offset="1" stop-color="#FF7524"/>
</linearGradient>
<linearGradient id="paint4_linear_2912_69628" x1="131.88" y1="120.3" x2="129.41" y2="117.53" gradientUnits="userSpaceOnUse">
<stop stop-color="#F1706E"/>
<stop offset="1" stop-color="#F48D7B"/>
</linearGradient>
<linearGradient id="paint5_linear_2912_69628" x1="21076.3" y1="17290.1" x2="20998.1" y2="17320.1" gradientUnits="userSpaceOnUse">
<stop stop-color="#F1706E"/>
<stop offset="1" stop-color="#F48D7B"/>
</linearGradient>
<linearGradient id="paint6_linear_2912_69628" x1="20074" y1="15148.4" x2="20002.5" y2="15178.2" gradientUnits="userSpaceOnUse">
<stop stop-color="#F1706E"/>
<stop offset="1" stop-color="#F48D7B"/>
</linearGradient>
<linearGradient id="paint7_linear_2912_69628" x1="-1133.65" y1="529.846" x2="-1132.47" y2="529.592" gradientUnits="userSpaceOnUse">
<stop stop-color="#F1706E"/>
<stop offset="1" stop-color="#F48D7B"/>
</linearGradient>
<linearGradient id="paint8_linear_2912_69628" x1="364886" y1="109570" x2="393062" y2="110478" gradientUnits="userSpaceOnUse">
<stop stop-color="#FFB9A4"/>
<stop offset="1" stop-color="#FF7524"/>
</linearGradient>
<linearGradient id="paint9_linear_2912_69628" x1="254580" y1="109006" x2="268060" y2="104742" gradientUnits="userSpaceOnUse">
<stop stop-color="#FF5F00"/>
<stop offset="1" stop-color="#FF7524"/>
</linearGradient>
<radialGradient id="paint10_radial_2912_69628" cx="0" cy="0" r="1" gradientUnits="userSpaceOnUse" gradientTransform="translate(112.54 144.97) scale(14.1)">
<stop stop-color="#FFECE1"/>
<stop offset="1" stop-color="#FFE2D0"/>
</radialGradient>
<linearGradient id="paint11_linear_2912_69628" x1="-150702" y1="12507.3" x2="-150288" y2="12507.3" gradientUnits="userSpaceOnUse">
<stop stop-color="#FF5F00"/>
<stop offset="1" stop-color="#FF7524"/>
</linearGradient>
<clipPath id="clip0_2912_69628">
<rect width="302.15" height="200" fill="white"/>
</clipPath>
</defs>
</svg>
