<svg width="303" height="200" viewBox="0 0 303 200" fill="none" xmlns="http://www.w3.org/2000/svg">
<g clip-path="url(#clip0_3282_105734)">
<path d="M289.89 0H12C5.37258 0 0 5.37258 0 12V188C0 194.627 5.37258 200 12 200H289.89C296.517 200 301.89 194.627 301.89 188V12C301.89 5.37258 296.517 0 289.89 0Z" fill="#FFE8DB"/>
<path opacity="0.3" d="M301.89 73.5302H294.75V66.9402H280.43V44.1202H277.78V16.2402H275.65V43.6202H270.62V45.9002H261.07V43.6202H243.83V45.9002H239.2V18.5302H237.08V46.4102H234.43V69.2202H220.11V75.8102H212.15V51.9802H209.23V93.5502H194.37V89.0102H185.88V48.4502H168.64V89.0102H159.09V48.4502H154.05V21.0802H151.93V48.9602H149.28V71.7702H137.65V32.5502H120.41V73.1002H110.87V32.5502H101.05V55.8602H86.73V62.4502H78.78V38.6302H75.86V80.2002H57.76V45.9002H40.52V86.4502H30.97V45.9002H21.16V69.2202H6.84V75.8102H0V138.37H301.89V73.5302Z" fill="#FFB9A4"/>
<path d="M51.2296 49.3101H44.3896V142.24H51.2296V49.3101Z" fill="#FF9B78"/>
<path d="M60.8496 22.1001H34.7696C30.9699 22.1001 27.8896 25.1804 27.8896 28.9801V47.9001C27.8896 51.6998 30.9699 54.7801 34.7696 54.7801H60.8496C64.6494 54.7801 67.7297 51.6998 67.7297 47.9001V28.9801C67.7297 25.1804 64.6494 22.1001 60.8496 22.1001Z" fill="url(#paint0_linear_3282_105734)"/>
<path d="M246.91 131.59C246.91 137.35 243.65 138.37 239.62 138.37H237.62C233.62 138.37 230.33 137.37 230.33 131.59V108.74C230.33 102.98 233.59 98.3101 237.62 98.3101H239.62C243.62 98.3101 246.91 102.98 246.91 108.74V131.59Z" fill="#131313"/>
<path d="M301.89 91.04H237.41L234.63 105.3H301.89V91.04Z" fill="white"/>
<path d="M241.84 97.9099C241.888 97.4516 242.114 97.0303 242.469 96.7367C242.824 96.4432 243.281 96.3007 243.74 96.3399H263.17C263.628 96.3008 264.083 96.4437 264.437 96.7375C264.79 97.0312 265.014 97.4524 265.06 97.9099C265.012 98.3656 264.787 98.7843 264.433 99.076C264.08 99.3676 263.626 99.5091 263.17 99.4699H243.74C243.282 99.5092 242.827 99.368 242.472 99.0766C242.117 98.7851 241.89 98.3665 241.84 97.9099Z" fill="url(#paint1_radial_3282_105734)"/>
<path d="M301.89 68.46C294.584 67.6589 287.239 67.265 279.89 67.28C279.89 67.28 253.83 67.13 247.5 71.13C242.28 74.43 241.59 81.85 237.68 89.13H236.04C236.04 89.13 236.37 85.61 233.5 85.61C230.63 85.61 224.17 85.22 224.17 89.85C224.155 90.2962 224.237 90.7404 224.41 91.1522C224.582 91.564 224.842 91.9338 225.17 92.2364C225.498 92.5391 225.888 92.7675 226.312 92.9061C226.737 93.0448 227.186 93.0905 227.63 93.04H235.19L234.65 93.74C227.78 102.26 228.34 103.88 228.65 107.65C229.2 113.83 228.98 129.39 240.65 129.39H301.91L301.89 68.46ZM252.15 102.09H236.67C236.67 102.09 236.41 96.09 240.15 94.87C243.89 93.65 256.59 94.26 256.59 94.26C256.59 94.26 259.59 93.83 260.85 96.09L252.15 102.09Z" fill="#FF9B78"/>
<path d="M301.89 96.2301L300.89 98.1602C300.505 98.8868 299.93 99.4944 299.225 99.9174C298.52 100.34 297.712 100.563 296.89 100.56H265.84C265.018 100.564 264.21 100.342 263.505 99.9188C262.8 99.4957 262.224 98.8875 261.84 98.1602L260.76 96.1602L252.12 102.16C252.12 102.16 252.73 108.16 259.69 108.16H301.84L301.89 96.2301Z" fill="url(#paint2_linear_3282_105734)"/>
<path d="M301.89 74.8701H255.89C254.511 74.8746 253.165 75.2859 252.019 76.0526C250.873 76.8194 249.98 77.9073 249.45 79.1801L247.22 84.5801C247.1 84.8445 247.05 85.1353 247.074 85.4246C247.099 85.7139 247.197 85.992 247.359 86.2327C247.522 86.4733 247.743 86.6684 248.002 86.7992C248.261 86.93 248.55 86.9923 248.84 86.9801H301.9L301.89 74.8701Z" fill="white"/>
<path d="M202.95 131.59C202.95 137.35 199.69 138.37 195.66 138.37H193.66C189.66 138.37 186.37 137.37 186.37 131.59V108.74C186.37 102.98 189.64 98.3101 193.66 98.3101H195.66C199.66 98.3101 202.95 102.98 202.95 108.74V131.59Z" fill="#131313"/>
<path d="M108.11 105.3H198.89L195.59 91.04H110.9L108.11 105.3Z" fill="white"/>
<path d="M115.33 97.9099C115.376 97.4524 115.6 97.0312 115.953 96.7374C116.307 96.4436 116.762 96.3008 117.22 96.3398H136.65C137.108 96.3008 137.563 96.4436 137.917 96.7374C138.271 97.0312 138.494 97.4524 138.54 97.9099C138.492 98.3656 138.267 98.7842 137.914 99.0759C137.56 99.3676 137.107 99.509 136.65 99.4698H117.22C116.764 99.509 116.31 99.3676 115.956 99.0759C115.603 98.7842 115.378 98.3656 115.33 97.9099Z" fill="url(#paint3_radial_3282_105734)"/>
<path d="M167.76 97.9099C167.805 97.4524 168.029 97.0312 168.383 96.7374C168.737 96.4436 169.192 96.3008 169.65 96.3398H189.08C189.538 96.3008 189.993 96.4436 190.347 96.7374C190.7 97.0312 190.924 97.4524 190.97 97.9099C190.922 98.3656 190.697 98.7842 190.343 99.0759C189.99 99.3676 189.536 99.509 189.08 99.4698H169.65C169.193 99.509 168.74 99.3676 168.386 99.0759C168.033 98.7842 167.808 98.3656 167.76 97.9099Z" fill="url(#paint4_radial_3282_105734)"/>
<path d="M207.48 89.85C207.48 85.22 201.02 85.61 198.15 85.61C195.28 85.61 195.61 89.13 195.61 89.13C191.69 81.85 191.01 74.43 185.79 71.13C179.45 67.13 153.41 67.28 153.4 67.28C153.39 67.28 127.4 67.13 121.01 71.13C115.79 74.43 115.11 81.85 111.19 89.13H109.56C109.56 89.13 109.88 85.61 107.01 85.61C104.14 85.61 97.69 85.22 97.69 89.85C97.6759 90.2953 97.7576 90.7385 97.9296 91.1495C98.1016 91.5605 98.36 91.9298 98.6871 92.2323C99.0142 92.5348 99.4026 92.7634 99.8258 92.9027C100.249 93.0421 100.697 93.089 101.14 93.04H108.7C108.52 93.27 108.35 93.51 108.16 93.74C101.3 102.26 101.85 103.88 102.16 107.65C102.72 113.83 102.5 129.39 114.16 129.39H192.66C204.28 129.39 204.06 113.83 204.66 107.65C205 103.88 205.55 102.26 198.66 93.74C198.47 93.51 198.3 93.27 198.12 93.04H204.12C204.556 93.0754 204.994 93.0184 205.406 92.8729C205.819 92.7274 206.196 92.4966 206.513 92.1956C206.83 91.8945 207.08 91.53 207.246 91.1259C207.413 90.7217 207.493 90.287 207.48 89.85ZM125.63 102.09H110.16C110.16 102.09 109.9 96.09 113.64 94.87C117.38 93.65 130.07 94.26 130.07 94.26C130.07 94.26 133.07 93.83 134.33 96.09L125.63 102.09ZM196.63 102.09H181.1L172.41 96.09C173.71 93.83 176.67 94.26 176.67 94.26C176.67 94.26 189.36 93.65 193.1 94.87C196.84 96.09 196.58 102.09 196.58 102.09H196.63Z" fill="#FF9B78"/>
<path d="M134.29 96.1099L135.37 98.1099C135.755 98.8365 136.331 99.4442 137.036 99.8672C137.741 100.29 138.548 100.512 139.37 100.51H167.37C168.192 100.51 168.998 100.287 169.703 99.8643C170.407 99.4415 170.984 98.8351 171.37 98.1099L172.44 96.1099L181.09 102.11C181.09 102.11 180.48 108.11 173.53 108.11H133.22C126.27 108.11 125.66 102.11 125.66 102.11L134.29 96.1099Z" fill="url(#paint5_linear_3282_105734)"/>
<path d="M177.32 74.8701H129.41C128.031 74.8746 126.685 75.2859 125.539 76.0526C124.393 76.8194 123.499 77.9073 122.97 79.1801L120.74 84.5801C120.633 84.8397 120.592 85.1216 120.62 85.4009C120.648 85.6801 120.744 85.9482 120.9 86.1814C121.057 86.4146 121.268 86.6058 121.515 86.7382C121.763 86.8705 122.039 86.9398 122.32 86.9401H184.42C184.7 86.9398 184.977 86.8705 185.224 86.7382C185.472 86.6058 185.683 86.4146 185.839 86.1814C185.995 85.9482 186.091 85.6801 186.119 85.4009C186.148 85.1216 186.106 84.8397 186 84.5801L183.76 79.1801C183.23 77.9073 182.336 76.8194 181.19 76.0526C180.045 75.2859 178.698 74.8746 177.32 74.8701Z" fill="white"/>
<path d="M51.8397 32.5C50.1797 35.71 45.3197 38.15 36.6797 37.5V44.29C49.7397 44.95 58.0097 40.14 60.6797 32.48L51.8397 32.5Z" fill="white"/>
<path d="M301.89 138.37H137.37" stroke="#141414" stroke-width="0.5" stroke-linecap="round" stroke-linejoin="round"/>
<path d="M135.76 199.96C148.8 199.96 159.37 189.34 159.37 176.24C159.37 163.14 148.8 152.52 135.76 152.52C122.721 152.52 112.15 163.14 112.15 176.24C112.15 189.34 122.721 199.96 135.76 199.96Z" fill="#131313"/>
<path d="M187.38 173.79C187.26 172.36 187.1 170.79 186.88 169.14C185.88 161.14 181.1 144.69 170.68 139.14C160.26 133.59 134.4 129.02 126.1 127.14C117.8 125.26 96.84 114.69 82.79 108.14C68.74 101.59 60.24 99.7002 50.27 97.5002C43.27 95.9502 23.82 94.6102 0 94.4502V183.93L55.56 184.31L81.06 152.9C100.55 153.9 105.06 168.41 106.06 176.9C106.23 178.544 107.003 180.066 108.229 181.174C109.455 182.282 111.048 182.897 112.7 182.9H179.2C180.356 182.903 181.499 182.662 182.555 182.192C183.611 181.723 184.556 181.035 185.328 180.175C186.1 179.315 186.682 178.302 187.036 177.202C187.389 176.102 187.507 174.939 187.38 173.79Z" fill="url(#paint6_linear_3282_105734)"/>
<path d="M128.95 155.89C127.512 151.032 124.793 146.651 121.079 143.206C117.365 139.761 112.792 137.379 107.84 136.31L71.84 128.54C67.6299 127.639 63.6759 125.804 60.27 123.17C48.9 114.34 31.14 104.11 23.67 101.01C18.51 98.8699 8.61 97.0799 0 95.8999V183.83L55.56 184.21C55.56 184.21 109.25 182.7 112.66 182.7H122.4C126.94 182.7 132.4 181.81 133.33 176.29C133.84 173.52 131.44 164.35 128.95 155.89Z" fill="url(#paint7_linear_3282_105734)"/>
<path d="M51.43 127.49C45.82 117.72 31.37 111.22 22.14 107.49C17.54 105.62 9.66 103.91 0 102.71V129.25C23.25 130.67 41.53 131.17 49.19 131.33C49.6449 131.344 50.0951 131.234 50.4931 131.014C50.8912 130.793 51.2223 130.469 51.4516 130.076C51.6809 129.683 51.8 129.235 51.7962 128.78C51.7924 128.325 51.6659 127.879 51.43 127.49Z" fill="white"/>
<path d="M82.8402 108.04C74.024 103.787 64.7411 100.578 55.1802 98.4798C50.0302 98.0298 38.9602 97.2298 26.0002 97.3098C25.9763 97.3098 25.9534 97.3193 25.9365 97.3361C25.9196 97.353 25.9102 97.376 25.9102 97.3999C25.9102 97.4237 25.9196 97.4466 25.9365 97.4635C25.9534 97.4803 25.9763 97.4898 26.0002 97.4898C29.4602 98.8998 51.9002 108.32 67.2502 121.49C70.3188 124.099 74.2225 125.518 78.2502 125.49L120.72 125.3C110.64 121.59 94.3702 113.48 82.8402 108.04Z" fill="white"/>
<path d="M146.63 151.72C138.84 146.03 126.84 139.98 119.31 137.71C109.82 134.8 96.0598 133.77 96.0498 133.77L107.82 136.31C112.775 137.376 117.352 139.757 121.07 143.202C124.788 146.647 127.51 151.03 128.95 155.89C128.95 155.99 129.01 156.08 129.03 156.18H145.18C145.699 156.177 146.204 156.011 146.624 155.705C147.043 155.398 147.355 154.968 147.516 154.474C147.676 153.98 147.677 153.448 147.518 152.954C147.359 152.459 147.048 152.028 146.63 151.72Z" fill="white"/>
<path d="M107.84 136.31L96.0703 133.77L120.44 153.34C122.736 155.172 125.584 156.173 128.52 156.18H129.05C129.05 156.08 129 155.99 128.97 155.89C127.531 151.03 124.809 146.647 121.091 143.202C117.373 139.757 112.796 137.376 107.84 136.31Z" fill="url(#paint8_radial_3282_105734)"/>
<path d="M180.13 148.98C178.72 149.88 177.36 150.79 176.13 151.69C175.712 151.998 175.401 152.429 175.242 152.924C175.083 153.418 175.084 153.95 175.244 154.444C175.405 154.938 175.717 155.368 176.136 155.675C176.555 155.981 177.061 156.147 177.58 156.15H183.58C182.627 153.67 181.473 151.272 180.13 148.98Z" fill="white"/>
<path d="M50.8396 130.85L45.8396 127.5C44.6185 126.68 43.1808 126.241 41.7096 126.24H36.2996C35.0585 126.225 33.8445 126.604 32.8327 127.323C31.8209 128.042 31.0635 129.063 30.6696 130.24C30.6639 130.283 30.6639 130.327 30.6696 130.37C30.4923 130.977 30.4542 131.615 30.5581 132.239C30.662 132.862 30.9052 133.454 31.2696 133.97C31.7992 134.735 32.5061 135.36 33.3298 135.791C34.1535 136.223 35.0695 136.449 35.9996 136.45H46.3396" fill="url(#paint9_linear_3282_105734)"/>
<path d="M77.7204 200C90.7598 200 101.33 189.38 101.33 176.28C101.33 163.18 90.7598 152.56 77.7204 152.56C64.6809 152.56 54.1104 163.18 54.1104 176.28C54.1104 189.38 64.6809 200 77.7204 200Z" fill="#131313"/>
<path d="M77.7204 189.42C84.9388 189.42 90.7904 183.537 90.7904 176.28C90.7904 169.023 84.9388 163.14 77.7204 163.14C70.502 163.14 64.6504 169.023 64.6504 176.28C64.6504 183.537 70.502 189.42 77.7204 189.42Z" fill="white"/>
<path opacity="0.3" d="M150.535 115.373C152.893 115.553 154.227 114.881 154.682 114H157.096C156.367 116.102 154.104 117.418 150.535 117.238V115.345" fill="white"/>
<path opacity="0.3" fill-rule="evenodd" clip-rule="evenodd" d="M158.842 117.238L157.971 118.449L159.978 121.375V117.238H158.842ZM152.859 117.484V121.271L154.752 118.431L153.872 117.266C154.594 117.086 155.273 116.764 155.869 116.319L156.437 117.039L157.517 115.401H163.68V117.294H162.269V121.829H157.536L156.314 120.002L155.046 121.829H150.539V120.58C150.217 121.46 149.195 122 147.178 122C144.186 122 144.044 120.94 143.997 119.728H146.364C146.341 120.01 146.418 120.291 146.582 120.523C146.665 120.614 146.768 120.685 146.883 120.731C146.998 120.777 147.121 120.796 147.244 120.788C147.727 120.788 148.191 120.655 148.191 120.125C148.192 120.02 148.159 119.917 148.097 119.832C147.784 119.415 145.152 119.103 144.414 118.336C144.141 118.022 143.999 117.615 144.016 117.2C144.016 115.77 145.124 115.126 147.33 115.126C149.678 115.126 150.227 115.95 150.265 117.294H148.03C148.04 117.009 147.938 116.73 147.746 116.518C147.603 116.392 147.416 116.328 147.225 116.338C146.743 116.338 146.478 116.556 146.478 116.897C146.474 117.004 146.511 117.109 146.582 117.19C146.941 117.597 149.488 117.891 150.217 118.667C150.355 118.813 150.465 118.983 150.539 119.169V117.56C151.314 117.597 152.091 117.559 152.859 117.446" fill="white"/>
<path opacity="0.3" d="M165.83 112.36H141.05C139.338 112.36 137.95 113.748 137.95 115.46V121.99C137.95 123.702 139.338 125.09 141.05 125.09H165.83C167.542 125.09 168.93 123.702 168.93 121.99V115.46C168.93 113.748 167.542 112.36 165.83 112.36Z" stroke="white" stroke-width="0.5" stroke-miterlimit="10"/>
<path opacity="0.3" d="M280.013 115.592C282.38 115.772 283.705 115.1 284.159 114.219H286.574C285.845 116.321 283.591 117.637 280.013 117.457V115.564" fill="white"/>
<path opacity="0.3" fill-rule="evenodd" clip-rule="evenodd" d="M288.316 117.456L287.455 118.668L289.452 121.594V117.456H288.316ZM282.333 117.703V121.49L284.226 118.649L283.346 117.485C284.068 117.305 284.747 116.983 285.343 116.538L285.912 117.258L286.991 115.62H293.145V117.513H291.762V122.048H287.029L285.807 120.221L284.548 122.048H280.061V120.798C279.739 121.679 278.726 122.219 276.709 122.219C273.717 122.219 273.566 121.158 273.519 119.946H275.885C275.867 120.228 275.944 120.508 276.103 120.742C276.187 120.833 276.29 120.904 276.404 120.95C276.519 120.996 276.643 121.015 276.766 121.007C277.249 121.007 277.769 120.874 277.769 120.344C277.771 120.237 277.734 120.133 277.665 120.051C277.353 119.634 274.721 119.321 273.982 118.555C273.712 118.24 273.573 117.833 273.594 117.419C273.594 115.989 274.702 115.345 276.908 115.345C279.114 115.345 279.805 116.169 279.833 117.513H277.552C277.559 117.371 277.538 117.229 277.489 117.096C277.44 116.963 277.365 116.84 277.268 116.737C277.124 116.611 276.937 116.547 276.747 116.557C276.264 116.557 275.999 116.775 275.999 117.116C276 117.222 276.037 117.325 276.103 117.409C276.463 117.816 279.01 118.11 279.739 118.886C279.88 119.029 279.99 119.2 280.061 119.388V117.778C280.836 117.816 281.612 117.778 282.38 117.665" fill="white"/>
<path opacity="0.3" d="M295.25 112.36H270.47C268.758 112.36 267.37 113.748 267.37 115.46V121.99C267.37 123.702 268.758 125.09 270.47 125.09H295.25C296.962 125.09 298.35 123.702 298.35 121.99V115.46C298.35 113.748 296.962 112.36 295.25 112.36Z" stroke="white" stroke-width="0.5" stroke-miterlimit="10"/>
</g>
<defs>
<linearGradient id="paint0_linear_3282_105734" x1="27.8896" y1="38.4401" x2="67.7297" y2="38.4401" gradientUnits="userSpaceOnUse">
<stop stop-color="#FF5F00"/>
<stop offset="1" stop-color="#FF7524"/>
</linearGradient>
<radialGradient id="paint1_radial_3282_105734" cx="0" cy="0" r="1" gradientUnits="userSpaceOnUse" gradientTransform="translate(253.45 97.9099) scale(8.28)">
<stop stop-color="#FFECE1"/>
<stop offset="1" stop-color="#FFE2D0"/>
</radialGradient>
<linearGradient id="paint2_linear_3282_105734" x1="274.87" y1="110.37" x2="303.07" y2="41.3602" gradientUnits="userSpaceOnUse">
<stop stop-color="#FFB9A4"/>
<stop offset="1" stop-color="#FF7524"/>
</linearGradient>
<radialGradient id="paint3_radial_3282_105734" cx="0" cy="0" r="1" gradientUnits="userSpaceOnUse" gradientTransform="translate(-68.261 5001.94) scale(192.179 26.022)">
<stop stop-color="#FFECE1"/>
<stop offset="1" stop-color="#FFE2D0"/>
</radialGradient>
<radialGradient id="paint4_radial_3282_105734" cx="0" cy="0" r="1" gradientUnits="userSpaceOnUse" gradientTransform="translate(1201.3 5001.94) scale(192.179 26.022)">
<stop stop-color="#FFECE1"/>
<stop offset="1" stop-color="#FFE2D0"/>
</radialGradient>
<linearGradient id="paint5_linear_3282_105734" x1="150.997" y1="110.32" x2="177.04" y2="39.3416" gradientUnits="userSpaceOnUse">
<stop stop-color="#FFB9A4"/>
<stop offset="1" stop-color="#FF7524"/>
</linearGradient>
<linearGradient id="paint6_linear_3282_105734" x1="-18261.3" y1="144110" x2="9914.87" y2="145021" gradientUnits="userSpaceOnUse">
<stop stop-color="#FFB9A4"/>
<stop offset="1" stop-color="#FF7524"/>
</linearGradient>
<linearGradient id="paint7_linear_3282_105734" x1="-18139.6" y1="142773" x2="-4659.83" y2="138509" gradientUnits="userSpaceOnUse">
<stop stop-color="#FF5F00"/>
<stop offset="1" stop-color="#FF7524"/>
</linearGradient>
<radialGradient id="paint8_radial_3282_105734" cx="0" cy="0" r="1" gradientUnits="userSpaceOnUse" gradientTransform="translate(-315152 36168.7) scale(465.018 315.98)">
<stop stop-color="#FFECE1"/>
<stop offset="1" stop-color="#FFE2D0"/>
</radialGradient>
<linearGradient id="paint9_linear_3282_105734" x1="-192282" y1="16405.5" x2="-191868" y2="16405.5" gradientUnits="userSpaceOnUse">
<stop stop-color="#FF5F00"/>
<stop offset="1" stop-color="#FF7524"/>
</linearGradient>
<clipPath id="clip0_3282_105734">
<rect width="302.14" height="200" fill="white"/>
</clipPath>
</defs>
</svg>
