<?xml version="1.0" encoding="UTF-8"?>
<svg width="24px" height="24px" viewBox="0 0 24 24" version="1.1" xmlns="http://www.w3.org/2000/svg" xmlns:xlink="http://www.w3.org/1999/xlink">
    <!-- Generator: Sketch 52.6 (67491) - http://www.bohemiancoding.com/sketch -->
    <title>Icons/24x24/ico_mydriver_active</title>
    <desc>Created with Sketch.</desc>
    <g id="Icons/24x24/ico_mydriver_active" stroke="none" stroke-width="1" fill="none" fill-rule="evenodd">
        <path d="M19.25,6 L15.75,6 L15.75,7 C15.75,7.62935079 16.4740907,8.25 17.5,8.25 C18.5259093,8.25 19.25,7.62935079 19.25,7 L19.25,6 Z M3.61941556,12.4711823 L5.50201863,8 L11,8 L11,9.5 L6.49798137,9.5 L5.02429716,13 L10.937,13 L10.937,14.5 L3.85208173,14.5 L2.5,15.4013878 L2.5,16 L6,16 L6,18 L2.5,18 L2.5,21.5 L4.5,21.5 L4.5,21 L4.5,19.5 L17.5,19.5 L18.5,19.5 L18.5,21.5 L20.5,21.5 L20.5,18 L17,18 L17,16 L22,16 L22,18 L22,22 L22,23 L17,23 L17,22.5 L17,21 L6,21 L6,22.5 L6,23 L1,23 L1,21.5 L1,14.5986122 L2.50864573,13.5928484 L0.664589803,12.6708204 L1.3354102,11.3291796 L3.61941556,12.4711823 Z M8,16 L15,16 L15,18 L8,18 L8,16 Z M14.25,5.64766545 L13.0548864,3.29562221 L13.5314787,2.91434839 C13.6153798,2.84722755 13.7620753,2.73313102 13.95625,2.5875 C14.2791245,2.34534409 14.6182383,2.10311999 14.9589749,1.87596228 C15.16763,1.73685885 15.3709136,1.60749654 15.5672532,1.48969281 C16.356146,1.01635714 16.977646,0.75 17.5,0.75 C18.022354,0.75 18.643854,1.01635714 19.4327468,1.48969281 C19.6290864,1.60749654 19.83237,1.73685885 20.0410251,1.87596228 C20.3817617,2.10311999 20.7208755,2.34534409 21.04375,2.5875 C21.2379247,2.73313102 21.3846202,2.84722755 21.4685213,2.91434839 L21.9451136,3.29562221 L20.75,5.64766545 L20.75,7 C20.75,8.51350635 19.3074241,9.75 17.5,9.75 C15.6925759,9.75 14.25,8.51350635 14.25,7 L14.25,5.64766545 Z M18,12.5 L18,10.25 L21.4655596,10.25 L21.7869882,14.75 L13.2130118,14.75 L13.5344404,10.25 L17,10.25 L17,12.5 L18,12.5 Z" id="Combined-Shape" fill="#FF5F00" fill-rule="nonzero"></path>
    </g>
</svg>