<?xml version="1.0" encoding="UTF-8"?>
<svg width="24px" height="24px" viewBox="0 0 24 24" version="1.1" xmlns="http://www.w3.org/2000/svg" xmlns:xlink="http://www.w3.org/1999/xlink">
    <!-- Generator: Sketch 52.6 (67491) - http://www.bohemiancoding.com/sketch -->
    <title>Icons/24x24/ico_plane</title>
    <desc>Created with Sketch.</desc>
    <defs>
        <path d="M13.4872442,6.91135173 L17.7877855,5 L18,5 C21.3308075,5 23,5.41729812 23,7 C23,8.19130576 21.2833526,9.62485382 17.33666,12.1522977 L14.7905694,19.7905694 L9.76261096,21.4665556 L10.7171776,15.2618724 C10.2151523,15.5134336 9.79633704,15.7231155 9.4607136,15.8909272 C9.12667874,16.0579446 8.8748799,16.1835725 8.70503965,16.267948 C8.58736393,16.3263419 8.58736393,16.3263419 8.50887717,16.3649856 C8.49075578,16.3757797 8.48221998,16.380864 8.44509667,16.3954851 C5.9900008,17.6216367 3.37643837,16.4982497 2.09048229,13.8767499 L0.821426755,10.7565225 L2.82619925,8.7848685 L6.00125834,10.3813368 L7.06722786,9.84835208 L4.5,8.0146179 L4.5,5.88196601 L7.46214474,4.40089364 L13.4872442,6.91135173 Z M18.2105475,7.00074087 L13.5127558,9.08864827 L7.53785526,6.59910636 L6.60924273,7.06341262 L10.9327721,10.1516479 L5.99874166,12.6186632 L3.20739539,11.2151315 L3.91421904,13.0588263 C4.7109387,14.6794884 6.15995433,15.3019888 7.5527864,14.6055728 L7.74903784,14.5320031 C7.55268311,14.6025147 7.55268311,14.6025147 7.62793533,14.5694519 C7.70006316,14.5339394 7.70006316,14.5339394 7.81521035,14.476802 C7.98320343,14.3933442 8.2336546,14.2683887 8.5662864,14.1020728 C9.23248263,13.7689747 10.2276407,13.2703127 11.5516169,12.6061585 L13.2828898,11.7376896 L12.237389,18.5334444 L13.2094306,18.2094306 L15.6635904,10.8469511 L15.9631245,10.6563385 C17.7658622,9.50914181 19.1113697,8.57136384 19.9917622,7.8510427 C20.2903795,7.60671947 20.530563,7.39124961 20.7102789,7.20868605 C20.1690328,7.08104657 19.3293918,7.00872452 18.2105475,7.00074087 Z" id="path-1"></path>
    </defs>
    <g id="Icons/24x24/ico_plane" stroke="none" stroke-width="1" fill="none" fill-rule="evenodd">
        <mask id="mask-2" fill="white">
            <use xlink:href="#path-1"></use>
        </mask>
        <use id="Combined-Shape" fill="#FF5F00" fill-rule="nonzero" xlink:href="#path-1"></use>
    </g>
</svg>