<?xml version="1.0" encoding="UTF-8"?>
<svg width="24px" height="24px" viewBox="0 0 24 24" version="1.1" xmlns="http://www.w3.org/2000/svg" xmlns:xlink="http://www.w3.org/1999/xlink">
    <!-- Generator: Sketch 52.6 (67491) - http://www.bohemiancoding.com/sketch -->
    <title>Icons/24x24/ico_driver</title>
    <desc>Created with Sketch.</desc>
    <g id="Icons/24x24/ico_driver" stroke="none" stroke-width="1" fill="none" fill-rule="evenodd">
        <path d="M14.5,7 L16.5,7 L16.5,8.5 C16.5,10.9852847 14.4852847,13 12,13 C9.51471525,13 7.5,10.9852847 7.5,8.5 L7.5,7 L9.5,7 L9.5,8.5 C9.5,9.88071525 10.6192847,11 12,11 C13.3807153,11 14.5,9.88071525 14.5,8.5 L14.5,7 Z M5.42663945,20.005256 L3.52836055,19.375544 L4.62989208,16.0549597 C5.03498007,14.8276931 6.18145827,14.0004 7.4735,14.0004 L16.5245,14.0004 C17.8192312,14.0004 18.9687387,14.8293551 19.3746415,16.0575502 L20.4716415,19.3645502 L18.5733585,19.9942498 L17.4760093,16.6861951 C17.3407447,16.2769073 16.9573135,16.0004 16.5245,16.0004 L7.4735,16.0004 C7.04374193,16.0004 6.66345723,16.2748116 6.52863945,16.683256 L5.42663945,20.005256 Z M8.22721899,5.31300543 L8.91421356,6 L15.0857864,6 L15.7727811,5.31300533 L14.3866596,4.68257659 C13.3568654,4.21511944 12.6482922,4 12,4 C11.3517078,4 10.6431346,4.21511944 9.61400614,4.68227409 L8.22721899,5.31300543 Z M6.08599386,4.08972591 L8.78665962,2.86142341 C10.0561413,2.28516431 10.9954325,2 12,2 C13.0045675,2 13.9438587,2.28516431 15.2140061,2.86172591 L19.227219,4.68699457 L15.9142136,8 L8.08578644,8 L4.77278101,4.68699457 L6.08599386,4.08972591 Z M18.3701966,22.0101817 L16.3701872,21.9898183 C16.3707039,21.8895603 16.3621076,21.7279161 16.3384714,21.5862382 C16.3270736,21.5179192 16.3150868,21.4775747 16.3284534,21.5006556 C15.4399466,19.9644041 13.80548,19 12.0001,19 C10.19472,19 8.56025345,19.9644041 7.67146378,21.5011442 C7.68511319,21.4775747 7.67312635,21.5179192 7.66172864,21.5862382 C7.63809243,21.7279161 7.62949613,21.8895603 7.63003353,21.9922466 L5.63000342,22.0101817 L5.63006092,22.0027133 C5.6289791,21.7960002 5.64296395,21.53303 5.68899329,21.2571255 C5.73648538,20.972453 5.81025297,20.7241711 5.94045344,20.4993444 C7.18273273,18.3514112 9.47309679,17 12.0001,17 C14.5271032,17 16.8174673,18.3514112 18.0594638,20.4988558 C18.189947,20.7241711 18.2637146,20.972453 18.3112067,21.2571255 C18.3572361,21.53303 18.3712209,21.7960002 18.3701391,22.0027133 L18.3701966,22.0101817 Z M17.1943,20 L17.1943,22 L6.8053,22 L6.8053,20 L17.1943,20 Z" id="Combined-Shape" fill="#FF5F00" fill-rule="nonzero"></path>
    </g>
</svg>