<?xml version="1.0" encoding="UTF-8"?>
<svg width="80px" height="80px" viewBox="0 0 80 80" version="1.1" xmlns="http://www.w3.org/2000/svg" xmlns:xlink="http://www.w3.org/1999/xlink">
    <!-- Generator: Sketch 52.2 (67145) - http://www.bohemiancoding.com/sketch -->
    <title>Icon-Timepicker</title>
    <desc>Created with Sketch.</desc>
    <g id="Icon-Timepicker" stroke="none" stroke-width="1" fill="none" fill-rule="evenodd">
        <g id="Timepicker" transform="translate(0.000000, 6.000000)">
            <path d="M68.0157971,34.9921014 C68.0157971,53.77538 52.7881543,68.9992443 34.0086543,68.9992443 C15.2253757,68.9992443 0.00151142857,53.77538 0.00151142857,34.9921014 C0.00151142857,16.2126014 15.2253757,0.984958571 34.0086543,0.984958571 C52.7881543,0.984958571 68.0157971,16.2126014 68.0157971,34.9921014 Z M64.07294,34.9921014 C64.07294,18.3899348 50.610821,4.92781571 34.0086543,4.92781571 C17.4031471,4.92781571 3.94436857,18.3899348 3.94436857,34.9921014 C3.94436857,51.5976086 17.4031471,65.0563871 34.0086543,65.0563871 C50.610821,65.0563871 64.07294,51.5976086 64.07294,34.9921014 Z" id="Combined-Shape" fill="#000000"></path>
            <polyline id="Stroke-3" stroke="#000000" stroke-width="4" points="34.0086543 12.3206729 34.0086543 34.9921014 45.3443686 46.3278157"></polyline>
        </g>
    </g>
</svg>